<?xml version="1.0" standalone="no"?>
<!DOCTYPE svg PUBLIC "-//W3C//DTD SVG 1.1//EN" "http://www.w3.org/Graphics/SVG/1.1/DTD/svg11.dtd" >
<!--
2013-9-30: Created.
-->
<svg>
<metadata>
Created by iconfont
</metadata>
<defs>

<font id="wukong" horiz-adv-x="1024" >
  <font-face
    font-family="wukong"
    font-weight="500"
    font-stretch="normal"
    units-per-em="1024"
    ascent="896"
    descent="-128"
  />
    <missing-glyph />
    
    <glyph glyph-name="reminder" unicode="&#58963;" d="M508.8 851.2c-256 0-464-208-464-464s208-464 464-464 464 208 464 464S764.8 851.2 508.8 851.2zM508.8-28.799999999999955c-230.4 0-416 185.6-416 416s185.6 416 416 416 416-185.6 416-416S739.2-28.799999999999955 508.8-28.799999999999955zM521.6 243.20000000000005c12.8 0 22.4 9.6 22.4 22.4l0 428.8c0 12.8-9.6 22.4-22.4 22.4-12.8 0-22.4-9.6-22.4-22.4l0-428.8C496 256 508.8 243.20000000000005 521.6 243.20000000000005zM521.6 147.20000000000005m-35.2 0a1.1 1.1 0 1 1 70.4 0 1.1 1.1 0 1 1-70.4 0Z"  horiz-adv-x="1024" />

    
    <glyph glyph-name="lock" unicode="&#58917;" d="M765.604952 531.9363069999999l-42.267663 0 0 84.535325c0 116.65793-94.679359 211.337289-211.337289 211.337289s-211.337289-94.679359-211.337289-211.337289l0-84.535325-42.267663 0c-46.705742 0-84.535325-37.829584-84.535325-84.535325l0-422.674579c0-46.705742 37.829584-84.535325 84.535325-84.535325l507.209904 0c46.705742 0 84.535325 37.829584 84.535325 84.535325L850.140277 447.400982C850.140277 494.106724 812.310693 531.9363069999999 765.604952 531.9363069999999zM512 151.52939100000003c-46.705742 0-84.535325 37.829584-84.535325 84.535325 0 46.705742 37.829584 84.535325 84.535325 84.535325s84.535325-37.829584 84.535325-84.535325C596.534302 189.35795099999996 558.705742 151.52939100000003 512 151.52939100000003zM643.029242 531.9363069999999L380.970758 531.9363069999999l0 84.535325c0 72.27714 58.752102 131.029242 131.029242 131.029242S643.029242 688.748772 643.029242 616.471632L643.029242 531.9363069999999z"  horiz-adv-x="1024" />

    
    <glyph glyph-name="check" unicode="&#59032;" d="M103.355 203.44899999999996l324.675 0c-34.137 24.771-64.03 54.772-88.375 88.972l-236.304 0c-22.82 0-41.317-18.126-41.317-40.631l0-7.541c0-22.5 18.495-40.801 41.317-40.801M831.502 192.56100000000004c-7.753 20.078-30.923 30.345-51.712 22.759l-9.753-3.555c-20.959-7.312-31.542-29.679-23.745-49.568l70.329-181.652c7.821-20.014 30.9-30.212 51.684-22.736l9.813 3.537c20.979 7.312 31.567 29.744 23.745 49.651l-70.377 181.571zM663.154 55.178999999999974l-559.798-0.042c-22.82 0-41.317-18.173-41.317-40.65l0-7.541c0-22.522 18.495-40.845 41.317-40.845l559.798 0c22.799 0 41.271 18.235 41.271 40.738l0 7.63c0.042 22.479-18.451 40.719-41.271 40.719M357.978 464.69c4.994-30.042 14.576-59.939 29.358-88.506 16.135-31.113 37.267-58.141 61.633-80.876 32.937-30.817 71.94-53.828 114.134-67.46 74.426-24.153 158.064-20.078 233.217 17.766 149.426 75.474 208.636 256.275 132.348 403.86-65.164 125.578-207.373 186.305-340.533 155.082-23.274-5.423-46.245-13.351-68.49-24.561-30.646-15.47-57.238-35.484-79.909-58.611-46.332-47.251-75.411-107.874-83.425-171.948-3.515-27.921-2.98-56.426 1.67-84.753M657.922 740.035c127.227 0 230.322-101.786 230.322-227.366 0-125.536-103.118-227.299-230.322-227.299-127.162 0-230.237 101.746-230.237 227.299 0.022 125.554 103.094 227.366 230.237 227.366M106.335 536.673c-24.475 0-44.271-19.629-44.271-43.695l0-8.228c0-24.129 19.822-43.629 44.271-43.629l169.699 0c-4.434 23.207-6.986 47.103-6.986 71.596 0 8.038 0.685 15.964 1.242 23.957l-163.953 0zM103.355 699.707l215.087 0c18.707 33.023 42.213 62.961 69.559 89.038l-284.642 0c-22.82 0-41.317-18.126-41.317-40.631l0-7.587c0-22.522 18.495-40.82 41.317-40.82z"  horiz-adv-x="1024" />

    
    <glyph glyph-name="examine-category-nine" unicode="&#59074;" d="M355.2-32H188.8c-51.2 0-92.8 41.6-92.8 92.8V707.2c0 51.2 41.6 92.8 92.8 92.8h166.4c51.2 0 92.8-41.6 92.8-92.8v-646.4c0-51.2-41.6-92.8-92.8-92.8zM188.8 736c-16 0-28.8-12.8-28.8-28.8v-646.4c0-16 12.8-28.8 28.8-28.8h166.4c16 0 28.8 12.8 28.8 28.8V707.2c0 16-12.8 28.8-28.8 28.8H188.8z m502.4-779.2c-41.6 0-78.4 27.2-89.6 68.8l-168 624c-12.8 49.6 16 100.8 65.6 113.6l161.6 43.2c24 6.4 49.6 3.2 70.4-9.6 20.8-12.8 36.8-32 43.2-56l168-624c12.8-49.6-16-100.8-65.6-113.6L715.2-40c-8-1.6-16-3.2-24-3.2z m-6.4 790.4c-3.2 0-4.8 0-8-1.6l-161.6-43.2c-16-4.8-24-19.2-20.8-35.2l168-624c4.8-16 19.2-24 35.2-20.8l161.6 43.2c16 4.8 24 19.2 20.8 35.2l-168 624c-1.6 8-6.4 14.4-12.8 17.6-4.8 3.2-9.6 4.8-14.4 4.8z"  horiz-adv-x="1024" />

    
    <glyph glyph-name="examine-category-eight" unicode="&#59099;" d="M352 160h-32c-17.6 0-32 14.4-32 32s14.4 32 32 32h32c17.6 0 32-14.4 32-32s-14.4-32-32-32z m0 256h-32c-17.6 0-32 14.4-32 32s14.4 32 32 32h32c17.6 0 32-14.4 32-32s-14.4-32-32-32z m352-256H480c-17.6 0-32 14.4-32 32s14.4 32 32 32h224c17.6 0 32-14.4 32-32s-14.4-32-32-32z m0 256H480c-17.6 0-32 14.4-32 32s14.4 32 32 32h224c17.6 0 32-14.4 32-32s-14.4-32-32-32z m96-480H224c-52.8 0-96 43.2-96 96V672c0 52.8 43.2 96 96 96 17.6 0 32-14.4 32-32s-14.4-32-32-32-32-14.4-32-32v-640c0-17.6 14.4-32 32-32h576c17.6 0 32 14.4 32 32V672c0 17.6-14.4 32-32 32s-32 14.4-32 32 14.4 32 32 32c52.8 0 96-43.2 96-96v-640c0-52.8-43.2-96-96-96zM608 640H416c-52.8 0-96 43.2-96 96s43.2 96 96 96h192c52.8 0 96-43.2 96-96s-43.2-96-96-96zM416 768c-17.6 0-32-14.4-32-32s14.4-32 32-32h192c17.6 0 32 14.4 32 32s-14.4 32-32 32H416z"  horiz-adv-x="1024" />

    
    <glyph glyph-name="examine-category-overtime" unicode="&#59108;" d="M320 192h-32c-17.6 0-32 14.4-32 32s14.4 32 32 32h32c17.6 0 32-14.4 32-32s-14.4-32-32-32z m0 192h-32c-17.6 0-32 14.4-32 32s14.4 32 32 32h32c17.6 0 32-14.4 32-32s-14.4-32-32-32z m416-192H448c-17.6 0-32 14.4-32 32s14.4 32 32 32h288c17.6 0 32-14.4 32-32s-14.4-32-32-32z m0 192H448c-17.6 0-32 14.4-32 32s14.4 32 32 32h288c17.6 0 32-14.4 32-32s-14.4-32-32-32z m128-384H160c-52.8 0-96 43.2-96 96V608c0 52.8 43.2 96 96 96h128c17.6 0 32-14.4 32-32s-14.4-32-32-32H160c-17.6 0-32-14.4-32-32v-512c0-17.6 14.4-32 32-32h704c17.6 0 32 14.4 32 32V608c0 17.6-14.4 32-32 32H736c-17.6 0-32 14.4-32 32s14.4 32 32 32h128c52.8 0 96-43.2 96-96v-512c0-52.8-43.2-96-96-96zM528 544h-32c-52.8 0-96 43.2-96 96V768c0 52.8 43.2 96 96 96h32c52.8 0 96-43.2 96-96v-128c0-52.8-43.2-96-96-96zM496 800c-17.6 0-32-14.4-32-32v-128c0-17.6 14.4-32 32-32h32c17.6 0 32 14.4 32 32V768c0 17.6-14.4 32-32 32h-32z"  horiz-adv-x="1024" />

    
    <glyph glyph-name="examine-category-seven" unicode="&#59109;" d="M496 240c-8 0-16 3.2-22.4 9.6l-144 144c-12.8 12.8-12.8 32 0 44.8 12.8 12.8 32 12.8 44.8 0L496 316.79999999999995l201.6 201.6c12.8 12.8 32 12.8 44.8 0 12.8-12.8 12.8-32 0-44.8l-224-224C512 243.20000000000005 504 240 496 240z m336-272H192c-52.8 0-96 43.2-96 96V672c0 52.8 43.2 96 96 96 17.6 0 32-14.4 32-32s-14.4-32-32-32-32-14.4-32-32v-608c0-17.6 14.4-32 32-32h640c17.6 0 32 14.4 32 32V672c0 17.6-14.4 32-32 32s-32 14.4-32 32 14.4 32 32 32c52.8 0 96-43.2 96-96v-608c0-52.8-43.2-96-96-96zM320 672c-17.6 0-32 14.4-32 32v64c0 17.6 14.4 32 32 32s32-14.4 32-32v-64c0-17.6-14.4-32-32-32z m256 32H448c-17.6 0-32 14.4-32 32s14.4 32 32 32h128c17.6 0 32-14.4 32-32s-14.4-32-32-32z m128-32c-17.6 0-32 14.4-32 32v64c0 17.6 14.4 32 32 32s32-14.4 32-32v-64c0-17.6-14.4-32-32-32z"  horiz-adv-x="1024" />

    
    <glyph glyph-name="examine-category-ordinary" unicode="&#59123;" d="M704 384H320c-17.6 0-32 14.4-32 32s14.4 32 32 32h384c17.6 0 32-14.4 32-32s-14.4-32-32-32z m0 192H320c-17.6 0-32 14.4-32 32s14.4 32 32 32h384c17.6 0 32-14.4 32-32s-14.4-32-32-32z m96-640H224c-52.8 0-96 43.2-96 96V736c0 52.8 43.2 96 96 96h576c52.8 0 96-43.2 96-96v-704c0-52.8-43.2-96-96-96zM224 768c-17.6 0-32-14.4-32-32v-704c0-17.6 14.4-32 32-32h576c17.6 0 32 14.4 32 32V736c0 17.6-14.4 32-32 32H224z m256-641.6c-8 0-16 3.2-22.4 9.6l-48 46.4-24-16c-4.8-4.8-11.2-6.4-17.6-6.4h-48c-17.6 0-32 14.4-32 32s14.4 32 32 32h38.4l36.8 25.6c12.8 9.6 30.4 8 41.6-3.2l48-46.4 25.6 17.6c4.8 3.2 11.2 6.4 17.6 6.4h80c17.6 0 32-14.4 32-32s-14.4-32-32-32h-70.4l-40-27.2c-4.8-4.8-11.2-6.4-17.6-6.4z"  horiz-adv-x="1024" />

    
    <glyph glyph-name="examine-category-leave" unicode="&#59138;" d="M896-32H128c-17.6 0-32 14.4-32 32s14.4 32 32 32h768c17.6 0 32-14.4 32-32s-14.4-32-32-32z m0 128H128c-17.6 0-32 14.4-32 32V288c0 52.8 43.2 96 96 96h204.8c-6.4 38.4-25.6 75.2-52.8 107.2-36.8 41.6-56 94.4-56 148.8 0 60.8 24 118.4 68.8 161.6 44.8 43.2 102.4 64 164.8 62.4C636.8 859.2 734.4 760 736 644.8c1.6-57.6-20.8-113.6-59.2-156.8-27.2-28.8-43.2-64-49.6-104H832c52.8 0 96-43.2 96-96v-160c0-17.6-14.4-32-32-32z m-736 64h704V288c0 17.6-14.4 32-32 32H592c-17.6 0-32 14.4-32 32 0 67.2 24 131.2 68.8 179.2 28.8 30.4 43.2 70.4 43.2 112-1.6 83.2-70.4 153.6-153.6 156.8-44.8 1.6-86.4-14.4-116.8-44.8-32-30.4-49.6-72-49.6-115.2 0-38.4 14.4-76.8 40-105.6 46.4-52.8 72-116.8 72-182.4 0-17.6-14.4-32-32-32H192c-17.6 0-32-14.4-32-32v-128z"  horiz-adv-x="1024" />

    
    <glyph glyph-name="examine-category-six" unicode="&#59146;" d="M864 0H160c-52.8 0-96 43.2-96 96V672c0 52.8 43.2 96 96 96h704c52.8 0 96-43.2 96-96v-64c0-17.6-14.4-32-32-32s-32 14.4-32 32v64c0 17.6-14.4 32-32 32H160c-17.6 0-32-14.4-32-32v-576c0-17.6 14.4-32 32-32h704c17.6 0 32 14.4 32 32v64c0 17.6 14.4 32 32 32s32-14.4 32-32v-64c0-52.8-43.2-96-96-96z m-96 352h-32c-17.6 0-32 14.4-32 32s14.4 32 32 32h32c17.6 0 32-14.4 32-32s-14.4-32-32-32z m160-96H672c-52.8 0-96 43.2-96 96v64c0 52.8 43.2 96 96 96h256c17.6 0 32-14.4 32-32v-192c0-17.6-14.4-32-32-32zM672 448c-17.6 0-32-14.4-32-32v-64c0-17.6 14.4-32 32-32h224V448H672z"  horiz-adv-x="1024" />

    
    <glyph glyph-name="examine-category-five" unicode="&#59151;" d="M752 800H272c-70.4 0-128-57.6-128-128v-630.4c0-17.6 4.8-35.2 14.4-49.6 27.2-44.8 86.4-59.2 131.2-32l208 126.4c9.6 6.4 22.4 6.4 33.6 0l201.6-124.8c14.4-9.6 32-14.4 49.6-14.4 52.8 0 96 43.2 96 96V672c1.6 70.4-56 128-126.4 128z m64-756.8c0-17.6-14.4-32-32-32-6.4 0-11.2 1.6-16 4.8L566.4 140.79999999999995c-30.4 19.2-68.8 19.2-99.2 0l-208-126.4c-14.4-9.6-35.2-4.8-43.2 11.2-3.2 4.8-4.8 11.2-4.8 16V672c0 35.2 28.8 64 64 64h480c35.2 0 64-28.8 64-64v-628.8zM640 608H384c-17.6 0-32-14.4-32-32s14.4-32 32-32h256c17.6 0 32 14.4 32 32s-14.4 32-32 32z"  horiz-adv-x="1024" />

    
    <glyph glyph-name="examine-category-four" unicode="&#59167;" d="M945.93 765.241c-7.638 15.276-26.279 21.619-41.684 13.981L92.312 375.97299999999996c-15.276-7.638-21.619-26.279-13.981-41.684 1.683-3.365 3.884-6.343 6.473-8.803 3.365-3.237 7.378-5.696 12.169-7.249l273.148-85.828 41.943 52.041-222.919 70.035 611.539 303.957-327.131-395.999a22.868 22.868 0 0 1-2.071-2.848l-37.801-46.991v-194.957c0-17.218 13.852-31.069 31.069-31.069s31.069 13.852 31.069 31.069v175.54l297.097-93.206c3.495-1.036 6.991-1.553 10.485-1.423 15.017-0.388 28.609 10.227 31.457 25.502l113.79 621.507c0.388 2.071 0.517 4.272 0.517 6.343-0.13 4.402-1.036 9.062-3.237 13.333zM779.969 169.10699999999997l-240.396 75.472L866.314 640.19l-86.346-471.082z"  horiz-adv-x="1024" />

    
    <glyph glyph-name="examine-category-business" unicode="&#59193;" d="M752 816H272c-88 0-160-72-160-160v-416c0-78.4 57.6-144 132.8-156.8L144 24c-16-9.6-20.8-28.8-11.2-43.2 9.6-16 28.8-20.8 43.2-11.2L368 80h288l193.6-112c16-9.6 35.2-3.2 43.2 11.2 9.6 16 3.2 35.2-11.2 43.2l-100.8 59.2C854.4 96 912 161.60000000000002 912 240V656c0 88-72 160-160 160z m-480-64h480c52.8 0 96-43.2 96-96v-224H176V656c0 52.8 43.2 96 96 96z m480-608H272c-52.8 0-96 43.2-96 96V352h672v-112c0-52.8-43.2-96-96-96zM288 256a48 48 0 1 1 96 0 48 48 0 1 1-96 0zM640 256a48 48 0 1 1 96 0 48 48 0 1 1-96 0z"  horiz-adv-x="1024" />

    
    <glyph glyph-name="examine-category-borrowing" unicode="&#59195;" d="M512-48C273.6-48 80 145.60000000000002 80 384S273.6 816 512 816s432-193.6 432-432-193.6-432-432-432z m0 800c-203.2 0-368-164.8-368-368s164.8-368 368-368 368 164.8 368 368-164.8 368-368 368zM672 345.6H544v64h128c17.6 0 32 14.4 32 32s-14.4 32-32 32h-89.6l88 88c12.8 12.8 12.8 32 0 44.8-12.8 12.8-32 12.8-44.8 0L512 492.8 398.4 606.4c-12.8 12.8-32 12.8-44.8 0-12.8-12.8-12.8-32 0-44.8l88-88H352c-17.6 0-32-14.4-32-32s14.4-32 32-32h128v-64H352c-17.6 0-32-14.4-32-32s14.4-32 32-32h128v-128c0-17.6 14.4-32 32-32s32 14.4 32 32v128h128c17.6 0 32 14.4 32 32s-14.4 32-32 32z"  horiz-adv-x="1024" />

    
    <glyph glyph-name="examine-category-billing" unicode="&#59204;" d="M832 720H494.4c-14.4 0-28.8-4.8-41.6-14.4L422.4 680c-27.2-22.4-67.2-22.4-96 0L296 705.6c-9.6 9.6-24 14.4-38.4 14.4H192c-70.4 0-128-57.6-128-128v-416c0-70.4 57.6-128 128-128h52.8c20.8 0 40 9.6 51.2 25.6 52.8 72 104 72 156.8 0 12.8-16 32-25.6 51.2-25.6h328c70.4 0 128 57.6 128 128V592c0 70.4-57.6 128-128 128z m64-544c0-35.2-28.8-64-64-64H505.6c-38.4 52.8-83.2 80-129.6 80s-91.2-27.2-129.6-80H192c-35.2 0-64 28.8-64 64V592c0 35.2 28.8 64 64 64h65.6l30.4-25.6c51.2-43.2 126.4-43.2 177.6 0L496 656h336c35.2 0 64-28.8 64-64v-416zM384 528c-17.6 0-32-14.4-32-32v-64c0-17.6 14.4-32 32-32s32 14.4 32 32v64c0 17.6-14.4 32-32 32z m352-32H544c-17.6 0-32-14.4-32-32s14.4-32 32-32h192c17.6 0 32 14.4 32 32s-14.4 32-32 32z m0-160H544c-17.6 0-32-14.4-32-32s14.4-32 32-32h192c17.6 0 32 14.4 32 32s-14.4 32-32 32z m-352 32c-17.6 0-32-14.4-32-32v-64c0-17.6 14.4-32 32-32s32 14.4 32 32v64c0 17.6-14.4 32-32 32z"  horiz-adv-x="1024" />

    
    <glyph glyph-name="examine-category-two" unicode="&#59231;" d="M888.832 332.29999999999995c-11.286 11.286-29.855 11.286-41.142 0L588.094 72.70399999999995 465.518 195.27999999999997c-11.286 11.286-29.855 11.286-41.142 0s-11.286-29.855 0-41.142l143.209-143.209c11.286-11.286 29.855-11.286 41.142 0l280.227 280.227c11.165 11.286 11.165 29.855-0.122 41.142zM383.113 91.27300000000002H213.205c-16.02 0-29.127 13.107-29.127 29.127V671.388c0 16.02 13.107 29.127 29.127 29.127h550.988c16.02 0 29.127-13.107 29.127-29.127v-251.221c0-16.142 12.986-29.127 29.127-29.127s29.127 12.986 29.127 29.127V671.388c0 48.181-39.2 87.381-87.381 87.381H213.205c-48.181 0-87.381-39.2-87.381-87.381V120.39999999999998c0-48.181 39.2-87.381 87.381-87.381h169.908c16.142 0 29.127 12.986 29.127 29.127s-12.986 29.127-29.127 29.127zM670.742 604.274H322.431c-16.02 0-29.127-13.107-29.127-29.127s13.107-29.127 29.127-29.127h348.311c16.02 0 29.127 13.107 29.127 29.127s-13.107 29.127-29.127 29.127z m0-140.417H322.431c-16.02 0-29.127-13.107-29.127-29.127s13.107-29.127 29.127-29.127h348.311c16.02 0 29.127 13.107 29.127 29.127s-13.107 29.127-29.127 29.127z m0-140.539H322.431c-16.02 0-29.127-13.107-29.127-29.127s13.107-29.127 29.127-29.127h348.311c16.02 0 29.127 13.107 29.127 29.127s-13.107 29.127-29.127 29.127z"  horiz-adv-x="1024" />

    
    <glyph glyph-name="examine-category-three" unicode="&#59239;" d="M784 768H240c-88 0-160-72-160-160v-448c0-88 72-160 160-160h544c88 0 160 72 160 160V608c0 88-72 160-160 160z m-544-64h544c52.8 0 96-43.2 96-96v-64H144v64c0 52.8 43.2 96 96 96z m544-640H240c-52.8 0-96 43.2-96 96V480h736v-320c0-52.8-43.2-96-96-96zM272 288c-17.6 0-32-14.4-32-32v-64c0-17.6 14.4-32 32-32s32 14.4 32 32v64c0 17.6-14.4 32-32 32z m128 0c-17.6 0-32-14.4-32-32v-64c0-17.6 14.4-32 32-32s32 14.4 32 32v64c0 17.6-14.4 32-32 32z m128 0c-17.6 0-32-14.4-32-32v-64c0-17.6 14.4-32 32-32s32 14.4 32 32v64c0 17.6-14.4 32-32 32z"  horiz-adv-x="1024" />

    
    <glyph glyph-name="examine-category-one" unicode="&#58919;" d="M444.16 6.501999999999953H166.83c-41.533 0-60.058 18.525-60.058 60.058V773.612c0 41.533 18.525 60.057 60.058 60.057h571.3c41.533 0 60.058-18.524 60.058-60.057V410.88l-48.44 25.6V773.612c0 5.79-0.39 9.103-0.733 10.89-1.787 0.338-5.1 0.732-10.89 0.732H166.83c-5.79 0-9.103-0.39-10.89-0.732-0.338-1.792-0.732-5.1-0.732-10.89V66.55999999999995c0-5.79 0.389-9.103 0.732-10.89 1.792-0.338 5.1-0.732 10.89-0.732h277.33v-48.436zM664.622 684.77H239.386c-10.297 0-18.658-10.405-18.658-20.7s8.361-20.701 18.658-20.701h425.262c10.301 0 18.657 10.404 18.657 20.7s-8.387 20.7-18.683 20.7z m18.657-154.42c0 10.296-8.36 20.7-18.662 20.7H239.386c-10.297 0-18.658-10.409-18.658-20.7 0-10.301 8.361-20.705 18.658-20.705h425.262c10.27 0 18.631 10.404 18.631 20.705zM239.36 417.336c-10.301 0-18.657-10.404-18.657-20.705 0-10.301 8.356-20.7 18.657-20.7h272.906c10.307 0 18.658 10.404 18.658 20.7 0 10.301-8.351 20.705-18.658 20.705H239.36z m213.796-133.714H239.36c-10.301 0-18.657-10.403-18.657-20.7 0-10.301 8.356-20.71 18.657-20.71h213.796c10.301 0 18.657 10.409 18.657 20.71 0 10.291-8.35 20.7-18.657 20.7zM870.385 91.11000000000001h-47.77L729.4 221.548c38.36 13.511 66.069 49.725 66.069 92.646 0 54.38-44.201 98.611-98.586 98.611s-98.596-44.232-98.596-98.611c0-42.921 27.74-79.135 66.08-92.646L571.125 91.11000000000001h-47.74c-24.007 0-43.534-19.522-43.534-43.535v-70.123c0-24.008 19.527-43.546 43.535-43.546h346.962c24.007 0 43.54 19.533 43.54 43.546v70.123c0.031 24.008-19.497 43.535-43.504 43.535zM870.385 91.11000000000001h-47.77L729.4 221.548c38.36 13.511 66.069 49.725 66.069 92.646 0 54.38-44.201 98.611-98.586 98.611s-98.596-44.232-98.596-98.611c0-42.921 27.74-79.135 66.08-92.646L571.125 91.11000000000001h-47.74c-24.007 0-43.534-19.522-43.534-43.535v-70.123c0-24.008 19.527-43.546 43.535-43.546h346.962c24.007 0 43.54 19.533 43.54 43.546v70.123c0.031 24.008-19.497 43.535-43.504 43.535zM635.617 314.19000000000005c0 33.782 27.464 61.302 61.276 61.302 33.808 0 61.271-27.495 61.271-61.302 0-33.593-27.171-60.903-60.697-61.23h-1.152c-33.516 0.333-60.698 27.622-60.698 61.23zM691.164 194.79999999999995l10.972 0.696L776.74 91.11000000000001H617.032l74.132 103.69z m185.467-217.38h-0.03c0-3.385-2.837-6.221-6.216-6.221H523.407c-3.379 0-6.22 2.836-6.22 6.22v70.13c0 3.379 2.841 6.22 6.22 6.22h346.998c3.38 0 6.22-2.841 6.22-6.22v-70.13z"  horiz-adv-x="1024" />

    
    <glyph glyph-name="lightning" unicode="&#58974;" d="M428.186-64.005a40.965 40.965 0 0 0-40.679 45.742l39.137 333.302H310.021a40.97 40.97 0 0 0-40.253 48.537l81.92 435.047a40.96 40.96 0 0 0 40.253 33.382h307.2a40.96 40.96 0 0 0 34.79-62.582L588.509 535.434h125.476a40.96 40.96 0 0 0 35.855-60.764L464.041-42.839000000000055a40.96 40.96 0 0 0-35.855-21.166z m-68.772 460.959h113.28a40.98 40.98 0 0 0 40.683-45.737l-20.173-171.802 151.368 274.094h-129.75a40.96 40.96 0 0 0-34.791 62.582L625.454 750.08H425.912l-66.498-353.126z"  horiz-adv-x="1024" />

    
    <glyph glyph-name="label" unicode="&#58975;" d="M864 768H545.28c-10.88 1.92-22.4-1.28-30.72-9.6L72.96 316.79999999999995c-7.68-7.68-10.24-17.92-9.6-27.52-0.64-10.24 1.92-20.48 9.6-28.16l313.6-313.6c7.68-7.68 17.92-10.88 27.52-9.6 10.24-1.28 21.12 1.92 28.8 9.6l441.6 441.6c3.84 3.84 6.4 8.96 8.32 14.08 1.92 3.84 3.2 8.32 3.2 12.8V736c0 17.92-14.08 32-32 32z m-32-332.16L414.72 19.200000000000045 144.64 289.28 560 704h272v-268.16zM640 448c35.2 0 64 28.8 64 64s-28.8 64-64 64-64-28.8-64-64 28.8-64 64-64z"  horiz-adv-x="1024" />

    
    <glyph glyph-name="sub-task" unicode="&#58976;" d="M624 243.20000000000005h280c24 0 43.2 19.2 43.2 41.6V475.2c0 22.4-19.2 41.6-43.2 41.6H624c-24 0-43.2-19.2-43.2-41.6v-65.6H289.6V598.4H400c24 0 43.2 19.2 43.2 41.6V830.4C443.2 852.8 424 872 400 872H120c-24 0-43.2-19.2-43.2-41.6V640c0-22.4 19.2-41.6 43.2-41.6h110.4v-595.2h348.8v-65.6c0-22.4 19.2-41.6 43.2-41.6h280c24 0 43.2 19.2 43.2 41.6V128c0 22.4-19.2 41.6-43.2 41.6H624c-24 0-43.2-19.2-43.2-41.6v-65.6H289.6v288h291.2v-65.6c0-22.4 19.2-41.6 43.2-41.6z m12.8 222.4h252.8v-171.2H636.8V465.6z m-504 184V822.4h252.8v-171.2H132.8z m504-531.2h252.8v-171.2H636.8V118.39999999999998z"  horiz-adv-x="1024" />

    
    <glyph glyph-name="file" unicode="&#58978;" d="M902.5 720.7c-72.3 72.3-189.6 72.3-262 0L300 380.20000000000005c-43.4-43.4-43.4-113.8 0-157.2 43.4-43.4 113.8-43.4 157.2 0l262 262c14.5 14.5 14.5 37.9 0 52.4s-37.9 14.5-52.4 0l-262-262c-14.5-14.5-37.9-14.5-52.4 0s-14.5 37.9 0 52.4L693 668.4c43.4 43.4 113.8 43.4 157.2 0 43.4-43.4 43.4-113.8 0-157.2l-393-393c-72.3-72.3-189.6-72.3-262 0-72.3 72.3-72.3 189.6 0 262l314.4 314.4c14.5 14.5 14.5 37.9 0 52.4s-37.9 14.5-52.4 0L142.8 432.6c-101.3-101.3-101.3-265.5 0-366.8 101.3-101.3 265.5-101.3 366.8 0l393 393c72.3 72.3 72.3 189.6-0.1 261.9z m0 0"  horiz-adv-x="1024" />

    
    <glyph glyph-name="user" unicode="&#58979;" d="M512 305.067a256 256 0 1 0 256 256 256 256 0 0 0-256-256z m0 426.666a170.667 170.667 0 1 1 170.667-170.666A170.667 170.667 0 0 1 512 731.733zM810.667-36.26700000000005A42.667 42.667 0 0 0 768 6.399999999999977a256 256 0 0 1-512 0 42.667 42.667 0 0 0-85.333 0 341.333 341.333 0 1 0 682.666 0 42.667 42.667 0 0 0-42.666-42.667z"  horiz-adv-x="1024" />

    
    <glyph glyph-name="relevance" unicode="&#58980;" d="M192.037 319.95399999999995h64.013v-63.919H128.025V767.969l576.112 0.041v-511.975H512.099v63.919h128.025V704.216h-448.34zM768.149 512.21v-64.419h64.013v-383.512H384.075V447.791h128.024V512.21H320.062v-511.849h576.112V512.21z"  horiz-adv-x="1024" />

    
    <glyph glyph-name="black-label" unicode="&#58981;" d="M912 310.79999999999995c0-18.6-6.6-34.6-19.6-47.5L633.3 3.6000000000000227c-13.8-13-29.7-19.6-48.1-19.6-18.6 0-34.6 6.6-47.5 19.6l-377.6 378c-13.3 13-24.7 30.8-34.1 53.3-9.4 22.5-14 43-14 61.8V716.4c0 18.3 6.7 34.1 20.1 47.5 13.3 13.3 29.2 20.1 47.5 20.1h219.7c18.6 0 39.2-4.7 61.8-14 22.5-9.3 40.4-20.6 53.8-34.1l377.6-377c13-13.7 19.5-29.8 19.5-48.1zM328.9 567.1c13.2 13.2 19.8 29.1 19.8 47.7s-6.6 34.6-19.8 47.7c-13.2 13.2-29.1 19.8-47.7 19.8s-34.6-6.6-47.7-19.8-19.8-29.1-19.8-47.7 6.6-34.6 19.8-47.7c13.2-13.2 29.1-19.8 47.7-19.8 18.6 0.1 34.4 6.8 47.7 19.8z"  horiz-adv-x="1024" />

    
    <glyph glyph-name="activity-task" unicode="&#58983;" d="M419.749 407.213H219.263c-38.598 0-70 31.402-70 70V677.7c0 38.598 31.402 70 70 70h200.486c38.598 0 70-31.402 70-70v-200.486c0-38.599-31.402-70.001-70-70.001zM219.263 687.7c-5.514 0-10-4.486-10-10v-200.486c0-5.514 4.486-10 10-10h200.486c5.514 0 10 4.486 10 10V677.7c0 5.514-4.486 10-10 10H219.263z m200.486-667.399H219.263c-38.598 0-70 31.401-70 70V290.786c0 38.599 31.402 70 70 70h200.486c38.598 0 70-31.401 70-70v-200.485c0-38.599-31.402-70-70-70zM219.263 300.786c-5.514 0-10-4.486-10-10v-200.485c0-5.514 4.486-10 10-10h200.486c5.514 0 10 4.486 10 10V290.786c0 5.514-4.486 10-10 10H219.263z m625.474 317.215h-248c-16.568 0-30 13.432-30 30s13.432 30 30 30h248c16.568 0 30-13.432 30-30s-13.431-30-30-30z m0-141.089h-248c-16.568 0-30 13.432-30 30s13.432 30 30 30h248c16.568 0 30-13.432 30-30s-13.431-30-30-30zM844.737 231.088h-248c-16.568 0-30 13.432-30 30s13.432 30 30 30h248c16.568 0 30-13.432 30-30s-13.431-30-30-30z m0-141.089h-248c-16.568 0-30 13.432-30 30s13.432 30 30 30h248c16.568 0 30-13.432 30-30s-13.431-30-30-30z"  horiz-adv-x="1024" />

    
    <glyph glyph-name="comment-task" unicode="&#58984;" d="M512.6-96c-18 0-36.2 1-54.5 3C254.8-70.9 61.4 119.1 35.9 321.8c-18.8 149.5 31 295.9 136.7 401.6C278.2 829.1 424.7 879 574.2 860.1 776.6 834.6 966.5 641.5 989 438.5c12.1-109.5-11.8-215.6-69.1-307.7 12.1-44.1 46-161 46-161 3.2-11.2 0.1-23.3-8.1-31.5s-20.3-11.4-31.5-8.1c0 0-117.2 33.9-160.5 46.3-76.7-47.9-163.2-72.5-253.2-72.5z m-0.3 896c-110.5 0-215.6-43-294.5-121.8C126.2 586.6 83 459.6 99.4 329.8 121.1 157.3 292-10.6 465.1-29.4c97.8-10.7 192.3 11.7 273.5 64.5 10.6 6.9 23.9 8.8 36.4 5.3 19.3-5.5 71.9-20.7 113.3-32.7-12 41.7-27.2 94.9-32.6 115-3.2 12.1-1.1 25 5.8 35.5 52.5 81 74.6 175.5 63.8 273.2-19 172.9-186.9 343.5-359.1 365.2-18 2.3-36.1 3.4-53.9 3.4z m261.2-818.5z m141.7 142.1c0-0.1-0.1-0.1-0.1-0.2 0.1 0 0.1 0.1 0.1 0.2zM336 352c-26.5 0-48 21.5-48 48s21.5 48 48 48 48-21.5 48-48-21.6-48-48-48z m192 0c-26.5 0-48 21.5-48 48s21.5 48 48 48 48-21.5 48-48-21.6-48-48-48z m192 0c-26.5 0-48 21.5-48 48s21.5 48 48 48 48-21.5 48-48-21.6-48-48-48z"  horiz-adv-x="1024" />

    
    <glyph glyph-name="time-task" unicode="&#58987;" d="M515.387964-127.992c-271.474084 0-491.51672 220.061636-491.51672 491.51672 0 271.494084 220.041636 491.53472 491.51672 491.53472 271.493084 0 491.53472-220.040636 491.534719-491.53472 0-271.455084-220.041636-491.51672-491.534719-491.51672z m0 921.6131c-237.520449 0-430.07638-192.555932-430.07638-430.09638 0-237.520449 192.555932-430.07538 430.07538-430.07538 237.540448 0 430.09638 192.554932 430.096379 430.07538 0 237.539448-192.554932 430.09538-430.095379 430.09538z m261.56519-491.53672h-261.997186c-9.259901 0-17.439813 4.285954-22.983753 10.911883-4.482952 5.269943-7.293922 11.973871-7.293922 19.385791v0.274998c0 0.059999-0.02 0.097999-0.019999 0.157998s0.02 0.078999 0.019999 0.157998l-0.019999 307.492697c0.02 16.73082 13.762852 30.276675 30.72967 30.276675 16.965818 0 30.74967-13.565854 30.749669-30.276675l-0.019999-276.940025h230.79552c16.75082 0 30.336674-13.742852 30.317675-30.70967 0-16.986818-13.546854-30.72967-30.277675-30.72967z"  horiz-adv-x="1024" />

    
    <glyph glyph-name="person-task" unicode="&#58988;" d="M588 40.6H436c-64.5 0-125.5 0-169.8 6.8-21.6 3.3-87.3 13.4-87.3 67.2v14.9c0 139.7 115.4 253.3 257.2 253.3h152c141.8 0 257.2-113.6 257.2-253.3v-14.9c0-52.6-65.7-63-87.2-66.5-44-7-103-7.5-170.1-7.5zM436 339.5c-117.9 0-213.9-94.2-213.9-210v-14.9c0-13.7 27.5-20.8 50.6-24.4 41.1-6.3 100.4-6.3 163.2-6.3h152c65.2 0 122.5 0.5 163.1 7 15.3 2.4 50.7 9.6 50.7 23.7v14.9c0 115.8-96 210-213.9 210H436z m75.4 83.9c-112.5 0-204 90.2-204 201s91.5 201 204 201 204-90.2 204-201-91.5-201-204-201z m0 358.7c-88.6 0-160.7-70.7-160.7-157.7 0-87 72.1-157.7 160.7-157.7s160.7 70.7 160.7 157.7c0 87-72.1 157.7-160.7 157.7z"  horiz-adv-x="1024" />

    
    <glyph glyph-name="addition-task" unicode="&#58990;" d="M511.999-128C229.23-128 0.002 101.232 0.002 384.001S229.23 896 511.999 896c282.77 0 511.999-229.23 511.999-511.999S794.768-128 511.999-128z m0 959.998c-247.423 0-447.997-200.574-447.997-447.997 0-247.422 200.574-448 447.997-448 247.425 0 448 200.578 448 448 0 247.423-200.575 447.997-448 447.997z m192-479.997H543.997V192c0-17.67-14.326-31.995-32-31.995-17.672 0-32 14.325-32 31.995V352.001H319.999c-17.672 0-32.002 14.328-32.002 32 0 17.67 14.33 31.998 32.002 31.998h159.998V576.003c0 17.672 14.33 31.996 32 31.996 17.672 0 32-14.322 32-31.996v-160.004h160.002c17.672 0 32-14.328 32-31.998 0-17.672-14.326-32-32-32z"  horiz-adv-x="1024" />

    
    <glyph glyph-name="delete-task" unicode="&#58991;" d="M254.399 91.298l-0.031 4.787c0-1.632 0.012-3.22 0.03-4.787zM614.19 636.963c-22.117 0-40.047-17.91-40.047-40.047l0.371-502.16c0-22.098 17.93-40.049 40.047-40.049s40.049 17.951 40.049 40.048l-0.351 502.161c0 22.135-17.932 40.047-40.07 40.047z m279.043 118.931l-318.892-0.148-0.178 41.407c0 22.136-17.933 40.048-40.067 40.048a39.868 39.868 0 0 1-20.018-5.364 39.906 39.906 0 0 1-20.031 5.364C471.932 837.2 454 819.289 454 797.153l0.188-41.464-230.116-0.106a40.115 40.115 0 0 1-10.104 1.287c-3.503 0-6.9-0.452-10.137-1.296l-73.067-0.034c-22.116 0-40.048-17.95-40.048-40.047 0-22.136 17.931-40.048 40.048-40.048l43.176 0.02 0.293-617.903h0.06v-42.55c0-44.234 35.862-80.096 80.094-80.096h40.048v-0.303l440.523 0.257v0.046h40.049c43.663 0 79.146 34.95 80.054 78.395l-0.33 583.37c0 22.135-17.93 40.047-40.048 40.047-22.115 0-40.047-17.912-40.047-40.047l0.288-509.324c-1.407-60.315-18.595-71.368-79.994-71.368l41.576-1.022-454.442-0.266 52.398 1.288c-62.715 0-79.305 11.523-80.064 75.309l0.493-76.612h-0.544l-0.313 660.818 236.823 0.11c1.174-0.104 2.36-0.167 3.561-0.167 1.216 0 2.416 0.063 3.604 0.17l32.64 0.015c1.253-0.119 2.521-0.185 3.805-0.185 1.3 0 2.583 0.067 3.852 0.188l354.913 0.164c22.116 0 40.05 17.912 40.05 40.047 0 22.136-17.933 40.048-40.049 40.048zM774.93 80.705l0.037-65.715h-0.46l0.423 65.715zM413.953 636.963c-22.116 0-40.048-17.91-40.048-40.047l0.372-502.16c0-22.098 17.931-40.049 40.049-40.049 22.116 0 40.047 17.951 40.047 40.048l-0.371 502.161c-0.001 22.135-17.933 40.047-40.049 40.047z"  horiz-adv-x="1024" />

    
    <glyph glyph-name="edit-task" unicode="&#58992;" d="M904 654.4L790.4 768c-36.8 36.8-97.6 36.8-136 0L129.6 243.2C118.4 232 112 216 112 200l-6.4-166.4v-4.8c1.6-17.6 8-33.6 20.8-44.8 11.2-11.2 27.2-16 43.2-16h3.2l163.2 6.4c16 0 30.4 8 41.6 19.2l524.8 524.8c40 38.4 40 99.2 1.6 136zM203.2 225.6l419.2 419.2 158.4-158.4-419.2-419.2-158.4 158.4zM168 30.4l4.8 132.8 126.4-126.4-131.2-6.4z m691.2 534.4l-33.6-33.6-158.4 158.4 33.6 33.6c6.4 6.4 14.4 9.6 22.4 9.6 8 0 16-3.2 22.4-9.6l113.6-113.6c12.8-12.8 12.8-32 0-44.8z"  horiz-adv-x="1024" />

    
    <glyph glyph-name="address" unicode="&#58993;" d="M384 512h42.667a170.667 170.667 0 0 1 170.666 170.667V896H384a170.667 170.667 0 0 1-170.667-170.667v-42.666A170.667 170.667 0 0 1 384 512z m21.333 298.667H512V704A106.667 106.667 0 1 0 405.333 810.667zM768 256h298.667v85.333H768zM554.667 469.333h-384L0 298.667l170.667-128V-128h512V341.333a128 128 0 0 1-128 128z m42.666-512H256v256l-128 85.334L245.333 384H509.44a89.6 89.6 0 0 0 87.893-91.307z m170.667 640V512h298.667v85.333zM768 0h298.667v85.333H768z"  horiz-adv-x="1066" />

    
    <glyph glyph-name="book" unicode="&#58994;" d="M463.238 652.19h243.81c29.257 0 48.762-19.504 48.762-48.761s-19.505-48.762-48.762-48.762h-243.81c-29.257 0-48.762 19.504-48.762 48.762s19.505 48.761 48.762 48.761z m0-390.095h243.81c29.257 0 48.762-19.505 48.762-48.762s-19.505-48.762-48.762-48.762h-243.81c-29.257 0-48.762 19.505-48.762 48.762s19.505 48.762 48.762 48.762z m0 195.048h243.81c29.257 0 48.762-19.505 48.762-48.762s-19.505-48.762-48.762-48.762h-243.81c-29.257 0-48.762 19.505-48.762 48.762s19.505 48.762 48.762 48.762zM902.095-128H219.43c-53.639 0-97.524 43.886-97.524 97.524v97.524h97.524v-48.762c0-29.257 19.504-48.762 48.761-48.762h585.143c29.257 0 48.762 19.505 48.762 48.762V749.714c0 29.257-19.505 48.762-48.762 48.762H268.19c-29.257 0-48.761-19.505-48.761-48.762v-48.762h-97.524V798.476C121.905 852.114 165.79 896 219.429 896h682.666c53.638 0 97.524-43.886 97.524-97.524v-828.952c0-53.638-43.886-97.524-97.524-97.524zM268.19 627.81c0-14.629-9.752-24.381-24.38-24.381H48.762c-14.629 0-24.381 9.752-24.381 24.38s9.752 24.381 24.38 24.381H243.81c14.628 0 24.38-9.752 24.38-24.38z m-48.761-73.143v-97.524h-97.524v97.524h97.524zM48.762 408.38H243.81c14.628 0 24.38-9.752 24.38-24.381s-9.752-24.381-24.38-24.381H48.762c-14.629 0-24.381 9.752-24.381 24.381s9.752 24.381 24.38 24.381z m170.667-97.524v-97.524h-97.524v97.524h97.524zM48.762 164.571H243.81c14.628 0 24.38-9.752 24.38-24.38s-9.752-24.381-24.38-24.381H48.762c-14.629 0-24.381 9.752-24.381 24.38s9.752 24.381 24.38 24.381z"  horiz-adv-x="1024" />

    
    <glyph glyph-name="business" unicode="&#58995;" d="M843.66 543.611c0 207.288-178.267 368.972-393.846 331.66-157.539-29.02-269.474-169.975-269.474-331.66 0-107.79 45.603-182.413 124.373-244.599v-207.287c0-20.729 12.437-53.895 20.728-74.624 29.02-82.915 99.498-136.81 186.559-136.81s161.684 58.041 186.559 136.81c4.145 16.583 20.728 53.895 20.728 74.624V299.012c78.77 62.186 124.373 136.81 124.373 244.6zM516.146-32.648s-128.518-4.146-128.518 124.373h248.744s0-124.373-120.226-124.373z m120.226 165.83H387.628v82.915h248.744v-82.915z m0 198.996v-74.623H387.628v74.623c-87.061 53.895-136.81 149.247-120.227 257.037 16.583 107.789 107.79 194.85 215.579 207.287 149.247 16.583 277.765-95.352 277.765-248.745 0-91.206-49.749-174.121-124.373-215.579z"  horiz-adv-x="1024" />

    
    <glyph glyph-name="certificate" unicode="&#58996;" d="M945.554656 533.11123C971.110569 676.223745 914.88876 752.890485 781.99921 768.223433 725.777401 896 633.777712 926.666896 511.111128 860.222121c-122.665584 66.444775-209.55429 40.889861-270.888082-91.999688-137.999532-15.332948-189.109359-97.110671-163.554446-235.110203-102.222654-97.110671-102.222654-194.221342 0-291.333013-25.555913-143.109515 25.554913-224.888238 163.554446-240.221186 56.222809-127.777567 148.222498-158.444463 270.889082-91.999688 122.665584-71.555758 209.55429-40.888861 270.887082 91.999688 137.999532 15.332948 194.222342 97.110671 163.555446 235.110203 102.221654 97.110671 102.221654 199.333325 0 296.443996zM511.111128-23.996882c-224.888238 0-408.887614 183.999376-408.887614 408.887614s183.999376 408.887614 408.888614 408.887614S919.998742 609.77897 919.998742 384.889732 735.999366-23.996882 511.110128-23.996882z m148.222498 567.331077l-178.889394-178.888394L368.000613 471.779438c-20.443931 20.443931-51.109827 20.443931-71.554758 0-20.444931-20.444931-20.444931-51.111827 0-71.555758l143.109515-143.110515c20.444931-20.444931 51.111827-20.444931 71.555758 0l214.666273 214.666273c20.444931 20.443931 20.444931 51.109827 0 71.554757s-45.999844 20.444931-66.443775 0z"  horiz-adv-x="1024" />

    
    <glyph glyph-name="contract" unicode="&#58997;" d="M862.316 718.147l199.41-102.4c5.39 0 10.78-5.39 16.169-5.39l-215.58-404.21v512M754.527 896v-1024h53.895l371.874 706.021c16.168 53.895-10.78 118.568-70.063 134.737L754.526 896zM754.526 788.21v-808.42H107.79V788.21h646.737m0 107.79H107.79C48.505 896 0 847.495 0 788.21v-808.42C0-79.496 48.505-128 107.79-128h646.736c59.285 0 107.79 48.505 107.79 107.79V788.21C862.316 847.496 813.81 896 754.526 896zM269.474 642.695V588.8h323.368v53.895H269.474z m0-269.474h323.368v53.895H269.474v-53.895z m0-215.579h323.368v53.895H269.474v-53.895z"  horiz-adv-x="1185" />

    
    <glyph glyph-name="customer" unicode="&#58998;" d="M534.544 793.6c5.12-5.12 10.24-10.24 15.36-10.24 20.48-15.36 46.08-30.72 76.8-35.84h30.72v-20.48c0-20.48 5.12-81.92 0-92.16-5.12-10.24-5.12-25.6 0-35.84-5.12-10.24-15.36-20.48-15.36-30.72-5.12-15.36-15.36-25.6-20.48-30.72-46.08-30.72-66.56-92.16-51.2-148.48 25.6-87.04 92.16-138.24 184.32-143.36 61.44-10.24 87.04-51.2 117.76-107.52 10.24-15.36 15.36-35.84 30.72-51.2 5.12-15.36 10.24-46.08 15.36-107.52l-814.08-5.12c5.12 56.32 5.12 92.16 10.24 107.52l30.72 46.08c25.6 56.32 51.2 92.16 107.52 107.52 46.08 0 153.6 35.84 194.56 128 25.6 61.44 5.12 133.12-56.32 168.96-10.24 5.12-15.36 15.36-20.48 20.48 0 10.24-5.12 20.48-10.24 30.72v153.6c0 5.12 5.12 15.36 5.12 20.48h35.84c20.48 5.12 40.96 10.24 51.2 20.48l81.92 15.36M544.784 896h-5.12l-92.16-15.36c-35.84 0-30.72-15.36-51.2-20.48h-15.36c-5.12 0-15.36 0-35.84-5.12-61.44-5.12-81.92-81.92-81.92-107.52-5.12-25.6-5.12-102.4-5.12-143.36h-20.48c-20.48 0-15.36-25.6-15.36-25.6 5.12-25.6 0-40.96 51.2-61.44 15.36-40.96 40.96-61.44 61.44-76.8 15.36-5.12 25.6-20.48 15.36-35.84-25.6-51.2-97.28-66.56-102.4-66.56-158.72-20.48-189.44-174.08-220.16-199.68-20.48-20.48-25.6-163.84-25.6-230.4 0-20.48 15.36-35.84 30.72-35.84h957.44c20.48 0 35.84 15.36 30.72 35.84-5.12 66.56-15.36 209.92-35.84 230.4-30.72 25.6-61.44 179.2-220.16 199.68-66.56 0-87.04 40.96-97.28 66.56-5.12 15.36 0 25.6 15.36 35.84 15.36 10.24 40.96 35.84 56.32 76.8 35.84 25.6 46.08 25.6 56.32 51.2 0 0 5.12 30.72-15.36 30.72 0 0-5.12 0-15.36-5.12 5.12 25.6 5.12 102.4 0 128s0 102.4-56.32 112.64c-15.36 10.24-25.6 10.24-30.72 10.24h-35.84c-15.36 0-61.44 46.08-97.28 51.2zM565.264 266.24c0 30.72-20.48 51.2-51.2 51.2s-51.2-20.48-51.2-51.2 20.48-51.2 51.2-51.2 51.2 20.48 51.2 51.2z m-51.2-51.2c-56.32 0-102.4-46.08-102.4-102.4s46.08-102.4 102.4-102.4 102.4 46.08 102.4 102.4-46.08 102.4-102.4 102.4z"  horiz-adv-x="1024" />

    
    <glyph glyph-name="contacts" unicode="&#58999;" d="M540.045 789.015c5.095-5.095 10.19-10.19 15.284-10.19 20.378-15.283 45.85-30.566 76.418-35.66h30.567v-20.379c5.095-30.567 5.095-86.607 5.095-101.89-10.19-50.946 10.189-86.607 20.378-101.891 0-5.095 5.094-5.095 10.189-10.19 0 0-5.095 0-5.095-5.094l-30.567-20.378-10.189-35.661c-15.284-35.662-45.85-61.135-45.85-61.135l-15.284-15.283-10.19-20.378c-10.188-5.095-15.283-20.379-15.283-35.662-15.284-61.134 0-101.89 15.284-132.458 30.567-50.945 91.701-81.512 178.308-96.796 81.512-10.189 106.985-45.85 132.458-81.512 5.094-10.19 15.283-20.378 20.378-30.567H122.294c10.19 10.189 15.284 20.378 20.378 30.567 25.473 35.661 45.851 71.323 127.363 81.512 96.796 15.284 163.025 50.945 193.592 112.08 20.379 40.756 20.379 81.512 10.19 112.08-10.19 61.134-35.662 86.606-61.135 101.89-10.189 5.094-25.472 20.378-35.662 40.756l-15.283 45.85-30.567 10.19 10.189 10.189c20.378 30.567 30.567 61.134 25.472 96.796V738.07c0 5.094 5.095 15.283 5.095 20.378h35.662c20.378 5.094 40.756 10.189 50.945 20.378l81.512 10.189M545.14 896l-96.796-15.284c-35.662 0-30.567-15.283-50.945-20.378h-15.284c-5.095 0-15.284 0-35.662-5.094-56.04-10.19-76.418-81.513-81.512-106.985-5.095-25.473-5.095-101.89 0-142.647 5.094-25.473-15.284-25.473-15.284-25.473-30.567 0-20.378-101.89-20.378-101.89 5.095-25.473 0-40.756 50.945-61.135 25.473-66.228 86.607-101.89 86.607-101.89v-25.473s40.757-81.512-117.174-101.89C91.727 167.483 61.16 65.592 30.593 40.119 0.025 14.647 0.025-122.905 0.025-122.905h1018.906s-5.095 137.552-35.662 163.024-61.134 127.364-219.064 147.742C611.369 208.239 662.314 289.75 657.22 294.846v15.283s56.04 40.757 76.417 106.985c35.662 25.473 50.946 25.473 61.135 56.04 0 0 10.189 106.985-25.473 106.985h-5.094c-5.095 0-10.19 5.095-10.19 20.378 5.095 25.473 5.095 101.891 0 127.364s0 101.89-56.04 112.08c-15.283 5.094-25.472 5.094-30.566 5.094h-35.662C626.652 845.055 580.802 896 545.14 896z"  horiz-adv-x="1024" />

    
    <glyph glyph-name="department" unicode="&#59000;" d="M622.309 733.659h41.626c20.813 0 37.463 0 41.626-58.277v-4.162c0-16.65 4.163-66.602 0-74.927s-4.163-20.813 0-29.139c-4.163-8.325-12.488-16.65-12.488-24.975-4.162-12.488-12.488-20.813-16.65-20.813-20.813-8.325-33.301-20.813-41.626-41.626-4.163-12.488-29.138-70.764 0-129.04-16.65 8.324-37.464 12.487-58.277 16.65 0 0-29.138 4.162-37.463 24.975 0 0 0 4.163-4.163 4.163-4.162 12.488 0 29.138 4.163 41.626 12.488 8.325 29.138 20.813 41.626 37.463 37.463 49.951 49.951 129.04 33.3 233.106 0 8.325-4.162 16.65-8.324 24.976h16.65m91.577-441.236c8.325 0 12.488-4.163 20.813-4.163 45.789-8.325 83.252-45.788 116.553-112.39v-4.163c4.163-16.65 8.325-54.114 16.65-99.902h-79.089c-4.163 74.927-24.976 158.179-74.927 220.618M622.31 816.91c-33.3 0-70.764-4.163-87.415-8.326-99.902-20.813-4.162-116.552-4.162-116.552 29.138-183.155-54.114-191.48-54.114-191.48-16.65-20.813-45.789-87.415-20.813-137.366 24.975-70.764 99.902-79.09 99.902-79.09 174.83-33.3 137.366-299.707 137.366-299.707h258.081s-16.65 187.317-29.138 216.456c-4.162 8.325-58.276 141.528-178.992 162.341-70.764 8.325-41.626 74.927-41.626 74.927s41.626 16.65 62.44 70.764c29.138 12.488 41.625 45.789 33.3 54.114-4.162 4.162-8.325 4.162-12.488 4.162 4.163 20.813 4.163 83.253 0 104.066S776.325 804.423 659.772 804.423h-4.162c-4.163 8.325-16.65 12.488-33.301 12.488zM434.992 729.496c4.162-4.163 8.325-8.325 12.488-8.325 16.65-12.488 37.463-24.976 62.439-29.138h24.975v-16.65c0-16.651 4.163-66.603 0-74.928s-4.162-20.813 0-29.138c-4.162-8.325-12.487-16.65-12.487-24.976-4.163-12.487-12.488-20.813-16.65-20.813-20.814-8.325-33.302-20.813-41.627-41.626-4.163-12.487-29.138-70.764 0-129.04 12.488-20.813 41.626-58.277 104.065-62.44 62.44-8.324 95.74-66.6 112.39-108.227 0-4.162 4.163-8.325 4.163-8.325s0-4.163 4.163-4.163c4.162-12.487 8.325-49.95 12.487-91.577H131.122c4.163 41.626 4.163 79.09 8.325 95.74 4.163 4.163 4.163 8.325 8.325 16.65 0 0 29.139 95.74 108.228 104.065 33.3 4.163 99.902 29.139 124.878 87.415 16.65 41.626 8.325 91.577-24.976 129.04-12.487-4.162-20.813 4.163-37.463 8.326-4.163 0-12.488 4.162-16.65 16.65 0 8.325-4.163 16.65-8.326 20.813 0 8.325 4.163 16.65 0 24.976V687.87c0 4.163 4.163 12.488 4.163 16.65h29.138c16.65 4.163 33.301 8.326 41.626 16.65l66.602 8.326m8.325 87.415l-79.09-12.488c-29.138 0-24.975-12.488-41.625-16.65h-12.488c-4.163 0-12.488 0-29.138-4.163-49.952-8.325-66.602-66.602-66.602-87.415-4.163-20.813-4.163-83.252-4.163-116.553h-4.162c-24.976-4.162-8.325-49.95 12.488-66.601 24.975-58.277 74.926-70.765 74.926-70.765 49.952-54.113-49.95-79.089-49.95-79.089h4.162c-129.04-16.65-174.83-154.016-178.992-162.341C47.87 171.707 43.707-15.61 43.707-15.61h749.269s-8.326 191.48-29.139 216.456c-8.325 16.65-49.95 145.69-178.991 162.341-70.765 8.325-41.626 74.927-41.626 74.927s41.626 16.65 62.439 70.764c24.975 16.65 29.138 24.976 33.3 45.789 0 0 4.163 16.65-8.325 16.65h-8.325c4.163 20.813 4.163 83.252 0 104.065s0 83.252-45.789 91.577c-12.487 4.163-20.813 4.163-24.975 4.163h-29.138c-12.488 4.163-49.952 45.789-79.09 45.789z"  horiz-adv-x="1024" />

    
    <glyph glyph-name="systemconfig" unicode="&#59001;" d="M512 896L46.545 639.69v-512L512-128l465.455 255.69v512z m372.364-718.662L512-34.909 139.636 177.338V593.144L512 802.91l372.364-212.247zM325.818 384A186.182 186.182 0 1 1 512 570.182 186.182 186.182 0 0 1 325.818 384z"  horiz-adv-x="1024" />

    
    <glyph glyph-name="taskSetstatistics" unicode="&#59002;" d="M325.818 384A186.182 186.182 0 1 1 512 570.182 186.182 186.182 0 0 1 325.818 384z m279.273 0A93.09 93.09 0 1 0 512 477.09 93.09 93.09 0 0 0 605.09 384zM512 896L46.545 639.69v-512L512-128l465.455 255.69v512z m372.364-718.662L512-34.909 139.636 177.338V593.144L512 802.91l372.364-212.247z"  horiz-adv-x="1024" />

    
    <glyph glyph-name="task" unicode="&#59003;" d="M870.4-128H153.6A102.4 102.4 0 0 0 51.2-25.6V793.6A102.4 102.4 0 0 0 153.6 896h204.8v-153.6h307.2V896h204.8a102.4 102.4 0 0 0 102.4-102.4v-819.2A102.4 102.4 0 0 0 870.4-128z m0 880.64a40.277 40.277 0 0 1-39.595 40.96H768v-102.4a51.883 51.883 0 0 0-51.2-51.2H307.2a51.883 51.883 0 0 0-51.2 51.2V793.6h-62.805a40.277 40.277 0 0 1-39.595-40.96v-737.28a40.277 40.277 0 0 1 39.595-40.96h637.61a40.277 40.277 0 0 1 39.595 40.96zM522.923 181.93a51.2 51.2 0 0 0-73.046 0L305.152 326.657a51.2 51.2 0 0 0 72.363 72.363l108.544-108.544L665.6 471.38a51.2 51.2 0 0 0 72.363-72.362zM409.6 896h204.8v-102.4H409.6z"  horiz-adv-x="1024" />

    
    <glyph glyph-name="taskCompletestatistics" unicode="&#59004;" d="M1024 423.385H903.746a393.846 393.846 0 0 1-352.361 352.36V896h-78.77v-120.254a393.846 393.846 0 0 1-352.36-352.361H0v-78.77h120.254a393.846 393.846 0 0 1 352.361-352.36V-128h78.77V-7.746a393.846 393.846 0 0 1 352.36 352.361H1024zM551.385 696.45A315.077 315.077 0 0 0 823.4 423.385H704.722a195.873 195.873 0 0 1-153.337 153.337z m0-351.836h71.942a118.154 118.154 0 0 0-71.942-71.417z m71.942 78.77h-71.942v71.417a118.154 118.154 0 0 0 71.942-71.417z m-150.712 0h-71.942a118.154 118.154 0 0 0 71.942 71.417z m0 273.066v-119.729a195.873 195.873 0 0 1-153.337-153.337H200.599A315.077 315.077 0 0 0 472.615 696.45z m0-624.902A315.077 315.077 0 0 0 200.6 344.615h118.679a195.873 195.873 0 0 1 153.337-153.337z m-71.942 273.066h71.942v-71.417a118.154 118.154 0 0 0-71.942 71.417zM551.385 71.55V191.278a195.873 195.873 0 0 1 153.337 153.337h118.679A315.077 315.077 0 0 0 551.385 71.55z"  horiz-adv-x="1024" />

    
    <glyph glyph-name="examine" unicode="&#59005;" d="M0.316555-128V-25.70011h1022.993901V-128z m0 436.477531a118.666873 118.666873 0 0 0 102.29989 126.169865h358.047615v58.649937a204.59878 204.59878 0 1 0 102.29989 0v-58.649937H921.009566a118.666873 118.666873 0 0 0 102.29989-126.169865v-283.028696H0.316555z m613.79634 381.91759a102.29989 102.29989 0 1 1-102.29989-102.29989 102.29989 102.29989 0 0 1 102.29989 102.29989zM102.616445 127.748725H921.009566V281.19756c0 27.96197-36.82696 53.877942-81.839912 53.877943H184.456357c-45.011952 0-81.839912-25.915972-81.839912-53.877943z"  horiz-adv-x="1024" />

    
    <glyph glyph-name="funnelstatistics" unicode="&#59006;" d="M961.482 788.21L670.451 424.6a110.664 110.664 0 0 1-23.714-67.547v-310.434l-107.79 53.895V357.053a110.664 110.664 0 0 1-23.713 67.548L227.795 788.21h733.687M1185.684 896H0l431.158-538.947v-323.369L754.526-128V357.053L1185.684 896z"  horiz-adv-x="1185" />

    
    <glyph glyph-name="workbench" unicode="&#59007;" d="M910.222 896H113.778C51.2 896 0 844.8 0 782.222v-455.11c0-62.579 51.2-113.779 113.778-113.779H455.11v-227.555H341.333c-34.133 0-56.889-22.756-56.889-56.89S307.2-128 341.334-128h341.333c34.133 0 56.889 22.756 56.889 56.889s-22.756 56.889-56.89 56.889H568.89V213.333h341.333c62.578 0 113.778 51.2 113.778 113.778V782.222C1024 844.8 972.8 896 910.222 896z m0-512c0-34.133-22.755-56.889-56.889-56.889H170.667c-34.134 0-56.89 22.756-56.89 56.889V725.333c0 34.134 22.756 56.89 56.89 56.89h682.666c34.134 0 56.89-22.756 56.89-56.89V384z"  horiz-adv-x="1024" />

    
    <glyph glyph-name="project" unicode="&#59008;" d="M219.429 579.048H804.57c29.258 0 48.762 19.504 48.762 48.762s-19.504 48.761-48.762 48.761H219.43c-29.258 0-48.762-19.504-48.762-48.761 0-24.381 19.504-48.762 48.762-48.762z m633.904-48.762H170.667c-53.638 0-97.524-43.886-97.524-97.524v-390.095c0-53.638 43.886-97.524 97.524-97.524h682.666c53.638 0 97.524 43.886 97.524 97.524V432.762c0 53.638-43.886 97.524-97.524 97.524z m0-438.857c0-29.258-19.504-48.762-48.762-48.762H219.43c-29.258 0-48.762 19.504-48.762 48.762V384c0 29.257 19.504 48.762 48.762 48.762H804.57c29.258 0 48.762-19.505 48.762-48.762v-292.571zM268.19 725.333h487.62c29.257 0 48.761 19.505 48.761 48.762s-19.504 48.762-48.761 48.762H268.19c-29.257 0-48.761-19.505-48.761-48.762s19.504-48.762 48.761-48.762z m390.096-438.857H365.714c-29.257 0-48.762-19.505-48.762-48.762s19.505-48.762 48.762-48.762h292.572c29.257 0 48.762 19.505 48.762 48.762s-24.381 48.762-48.762 48.762z"  horiz-adv-x="1024" />

    
    <glyph glyph-name="message" unicode="&#59009;" d="M512 802.91c4.655-32.583 23.273-69.82 55.855-74.474 134.981-27.927 223.418-167.563 223.418-297.89v-139.637c0-37.236 27.927-111.709 46.545-139.636 0-4.655 0 4.654 0 0H186.182c0 4.654 0-4.655 0 0 18.618 27.927 46.545 102.4 46.545 139.636V430.545c0 130.328 69.818 269.964 204.8 297.891 32.582 4.655 60.51 32.582 65.164 65.164M139.636 290.91C111.71 179.2 83.782 155.926 83.782 160.581c-27.927-37.237-37.237-55.855-37.237-83.782s60.51-18.618 93.091-18.618h744.728c55.854 0 93.09-9.31 93.09 18.618 0 46.545-93.09 74.473-93.09 214.11V430.544c0 172.219-107.055 335.128-279.273 372.364C605.09 849.455 549.236 896 502.69 896H512c-46.545 0-93.09-51.2-93.09-93.09-172.22-37.237-279.274-200.146-279.274-372.365V290.91m512-279.273z m0 0H372.364C372.364-62.836 437.527-128 512-128s139.636 65.164 139.636 139.636z"  horiz-adv-x="1024" />

    
    <glyph glyph-name="notice" unicode="&#59010;" d="M1069.451603 567.143742a50.619981 50.619981 0 0 1-24.952991 35.648987L570.374788 887.266623A57.749979 57.749979 0 0 1 529.734803 895.10962a52.046981 52.046981 0 0 1-30.656988-8.555996L26.37999 602.792729A50.619981 50.619981 0 0 1 0 567.143742v-588.198782A106.94496 106.94496 0 0 1 106.94496-128h855.561683a106.94496 106.94496 0 0 1 106.94496 106.94496v588.199782z m-532.586802 213.889921l356.483867-213.889921H180.380933z m427.780841-749.329722a54.18598 54.18598 0 0 0-53.47298-53.47198H160.41794a54.18598 54.18598 0 0 0-53.47298 53.47298v427.779841h855.561683zM802.089702 192.836881H267.362901v-53.47298H802.089702z m0 160.41794H267.362901v-53.47298H802.089702z"  horiz-adv-x="1069" />

    
    <glyph glyph-name="money" unicode="&#59011;" d="M1018.88 40.96c-5.12-30.72-15.36-61.44-30.72-87.04-35.84-51.2-87.04-81.92-158.72-81.92H199.68c-87.04 0-163.84 61.44-184.32 143.36C0 66.56 0 117.76 0 168.96 15.36 358.4 133.12 512 307.2 588.8c-66.56 76.8-102.4 138.24-102.4 153.6-5.12 56.32 61.44 107.52 112.64 117.76 25.6 5.12 51.2 5.12 76.8-10.24h10.24c61.44 56.32 158.72 56.32 220.16 0 5.12-5.12 5.12 0 10.24 0C675.84 870.4 727.04 875.52 768 844.8c30.72-25.6 61.44-56.32 51.2-102.4-15.36-112.64-81.92-148.48-102.4-153.6 15.36-5.12 25.6 0 40.96-5.12 128-71.68 209.92-179.2 250.88-317.44 15.36-76.8 20.48-148.48 10.24-225.28zM921.6 230.4c-30.72 122.88-102.4 235.52-204.8 312.32-15.36 10.24-102.4 46.08-102.4 46.08s56.32 25.6 87.04 66.56c10.24 10.24 30.72 46.08 35.84 61.44 5.12 30.72 5.12 46.08-20.48 71.68-30.72 30.72-66.56 20.48-107.52 0h-5.12c-56.32 20.48-107.52 30.72-184.32 0 0 0-51.2 20.48-71.68 15.36-25.6-5.12-46.08-10.24-40.96-61.44 5.12-40.96 20.48-71.68 51.2-102.4l51.2-51.2c-143.36-66.56-296.96-245.76-307.2-409.6-5.12-46.08 0-112.64 0-153.6 20.48-71.68 81.92-51.2 153.6-51.2h512c56.32 0 122.88-10.24 153.6 35.84 0 15.36-5.12 40.96 0 66.56V230.4zM650.24 199.68h-76.8v51.2h76.8c15.36 0 25.6 10.24 25.6 25.6s-10.24 25.6-25.6 25.6h-76.8c0 10.24 0 15.36-5.12 20.48l92.16 102.4c10.24 10.24 10.24 25.6 0 35.84-10.24 10.24-25.6 10.24-35.84 0l-97.28-107.52h-10.24l-102.4 102.4c-10.24 10.24-25.6 10.24-35.84 0-10.24-10.24-10.24-25.6 0-35.84l97.28-97.28c-5.12-5.12-5.12-15.36-5.12-20.48h-76.8c-15.36 0-25.6-10.24-25.6-25.6s10.24-25.6 25.6-25.6h76.8v-51.2h-76.8c-15.36 0-25.6-10.24-25.6-25.6s10.24-25.6 25.6-25.6h76.8v-51.2c0-30.72 20.48-51.2 51.2-51.2s51.2 20.48 51.2 51.2v51.2h76.8c15.36 0 25.6 10.24 25.6 25.6 0 10.24-10.24 25.6-25.6 25.6z"  horiz-adv-x="1024" />

    
    <glyph glyph-name="employeestatistics" unicode="&#59012;" d="M416.764 798.788a115.282 115.282 0 0 0 118.52-111.396v-34.325a99.738 99.738 0 0 1 18.134-55.05 99.09 99.09 0 0 1-25.906-51.165 218.258 218.258 0 0 0-73.832-145.074 82.252 82.252 0 0 1-25.906-23.963l-12.305-16.839a77.07 77.07 0 0 1-8.42-16.19 152.846 152.846 0 0 1 69.299-208.544h3.238a641.822 641.822 0 0 0 187.171-113.987 878.214 878.214 0 0 0-306.339-44.688 688.453 688.453 0 0 0-259.06 45.983A463.07 463.07 0 0 0 287.881 134.3a154.789 154.789 0 0 1 82.252 75.127 161.265 161.265 0 0 1 0 129.53 101.681 101.681 0 0 1-23.963 35.621l-3.238 3.238a90.023 90.023 0 0 1-22.668 18.782 209.191 209.191 0 0 0-80.956 150.255 94.557 94.557 0 0 1-25.906 51.165 95.205 95.205 0 0 1 18.134 55.05v34.326A115.282 115.282 0 0 0 351.35 798.787h64.765m0 97.148h-64.765a211.782 211.782 0 0 1-215.02-208.544v-32.382h-12.305c-23.316-7.124-33.678-40.802-23.316-75.128a71.242 71.242 0 0 1 42.745-49.221A296.624 296.624 0 0 1 269.1 313.05a93.91 93.91 0 0 1 11.01-11.659 57.64 57.64 0 0 0-28.497-82.899C133.74 177.043 0.324 88.963 0.324 24.198v-27.85c0-87.432 198.182-117.224 358.151-124.348 19.43 0 407.373 0 406.077 124.997V23.55c0 89.376-248.05 194.296-248.05 194.296a59.584 59.584 0 0 0-21.372 81.604l11.657 16.838A305.044 305.044 0 0 1 624.66 530.661a72.537 72.537 0 0 1 42.745 49.221c11.01 34.326 0 64.765-23.316 75.128h-10.362v32.382A211.782 211.782 0 0 1 416.764 895.936zM721.807-75.54c-156.083 7.124-208.543 37.563-214.372 47.278v17.487a308.93 308.93 0 0 0 152.198 99.738 89.376 89.376 0 0 1 49.869 45.983 102.976 102.976 0 0 1 0 78.366l-3.886 10.362-7.772 7.125-11.01 12.305-6.476 3.886a178.752 178.752 0 0 0-68.651 129.53l-4.534 27.201-23.963 8.42h18.782l5.829 47.278v21.373a110.748 110.748 0 0 0 110.1 113.339H765.2a109.453 109.453 0 0 0 109.453-109.453 194.295 194.295 0 0 0 0-25.259v-49.869h20.077l-25.906-7.772v-27.849a185.228 185.228 0 0 0-64.765-124.996l-8.42-5.181-16.19-24.611v-3.886a91.319 91.319 0 0 1 39.506-124.349 380.171 380.171 0 0 0 152.846-101.681v-18.782c-12.306-20.077-122.406-44.688-249.346-44.688zM764.552 545.557a64.765 64.765 0 0 0 60.88-60.88v-65.412l-5.83-36.269a141.836 141.836 0 0 0-42.097-92.614l-16.19-10.362-11.011-16.191-6.476-9.067-11.658 11.657-4.534 3.886-9.715 11.658-12.953 7.124a143.778 143.778 0 0 0-45.335 93.91l-5.829 35.62v66.061a64.765 64.765 0 0 0 64.765 60.879h47.279M743.18 92.2a137.95 137.95 0 0 1 54.403-47.278 647.65 647.65 0 0 0 99.09-54.403 841.946 841.946 0 0 0-175.513-18.134 754.513 754.513 0 0 0-143.131 16.839 388.59 388.59 0 0 0 99.09 51.812 136.007 136.007 0 0 1 64.766 51.164m22.667 547.913h-47.278a158.674 158.674 0 0 1-158.675-155.436v-24.611h-8.42c-17.486-5.181-25.257-30.44-16.838-56.346a52.46 52.46 0 0 1 31.087-36.916 224.087 224.087 0 0 1 91.967-161.265l7.771-9.067a42.745 42.745 0 0 0-20.724-61.527c-86.786-31.087-183.933-95.204-183.933-145.074v-20.724c0-64.765 145.074-88.08 262.298-93.262 14.249 0 298.567 0 297.92 93.262v20.077c0 64.765-181.99 145.721-181.99 145.721a44.688 44.688 0 0 0-15.544 61.527l8.42 12.953a226.03 226.03 0 0 1 86.137 157.38 53.755 53.755 0 0 1 31.088 36.915c7.771 25.906 0 51.165-16.84 56.346h-7.771v24.61a158.674 158.674 0 0 1-158.675 158.027z"  horiz-adv-x="1024" />

    
    <glyph glyph-name="moneystatistics" unicode="&#59013;" d="M511.99904 895.99777A511.99904 511.99904 0 0 1 511.99904-127.99931a506.41305 506.41305 0 0 1 302.853432 99.916813l-75.092859 62.059883a420.149212 420.149212 0 1 0 153.909711 179.354664l74.472861-62.059884A511.377041 511.377041 0 0 1 511.99804 895.99777z m139.634738-558.543953a46.544913 46.544913 0 0 1 0 93.090826H585.228903l88.746833 139.635738a42.82192 42.82192 0 0 1-16.755968 62.059884 44.062917 44.062917 0 0 1-62.059884-8.687984l-88.746834-143.359731-89.987831 134.050748a46.544913 46.544913 0 1 1-80.05785-46.544912l91.849828-137.153743h-55.854895a46.544913 46.544913 0 0 1 0-93.089826h93.089825v-46.545912h-93.089825a46.544913 46.544913 0 0 1 0-93.089826h93.089825v-46.545913a46.544913 46.544913 0 0 1 93.090826 0v46.544913h93.090825a46.544913 46.544913 0 0 1 0 93.090826h-93.089825v46.544912z"  horiz-adv-x="1024" />

    
    <glyph glyph-name="product" unicode="&#59014;" d="M389.12 786.773v-273.066H116.053V786.773H389.12m364.089-22.755L866.987 650.24 753.209 536.462 639.43 650.24 753.21 764.018M889.742 286.15v-273.067H616.676V286.151h273.066m-500.622 0v-273.067H116.053V286.151H389.12M753.209 877.796c-9.102 0-18.205-4.552-22.756-9.103L534.756 672.996c-13.654-13.654-9.103-36.41 4.55-50.063l186.596-191.146c4.551-9.103 18.205-9.103 27.307-9.103s18.204 4.552 27.307 9.103L967.11 622.933c13.653 13.654 18.205 36.41 4.551 50.063L775.964 868.693c-9.102 9.103-13.653 9.103-22.755 9.103z m-318.578 0H65.991c-27.307 0-45.511-18.205-45.511-45.512v-368.64c0-27.306 22.756-40.96 50.062-40.96H425.53c27.307 0 50.062 22.756 50.062 50.063V827.733c4.551 27.307-13.653 50.063-40.96 50.063z m491.52-500.623H571.164c-27.306 0-50.062-22.755-50.062-50.062v-354.987c0-27.306 13.654-50.062 40.96-50.062h368.64c27.307 0 45.511 18.205 45.511 45.511v368.64c4.551 27.307-22.755 40.96-50.062 40.96z m-500.622 0H70.542c-27.306 0-50.062-13.653-50.062-40.96v-364.089c0-27.306 18.204-50.062 45.511-50.062h368.64c27.307 0 40.96 22.756 40.96 50.062V327.111c4.551 27.307-22.755 50.062-50.062 50.062z"  horiz-adv-x="1024" />

    
    <glyph glyph-name="example" unicode="&#59015;" d="M525.474 801.684c4.49 0 8.982-4.491 13.473-8.982l-13.473 8.982m-161.685-220.07l76.351-44.912-53.894-89.825c-13.474-17.965-44.913-80.842-89.825-166.175-22.456-44.913-49.403-89.825-53.895-103.298-13.473-26.948-26.947-49.404-35.93-67.369-4.49-8.982-8.982-17.965-13.473-22.456 0 0 0-4.491-4.491-4.491-4.492-4.492-8.983-13.474-13.474-17.965 0-4.491-4.491-4.491-4.491-4.491s-4.492 0-4.492-4.492c-4.49-4.49-8.982-8.982-26.947-22.456-13.474-8.982-31.439-22.456-44.912-31.438v85.333c0 4.491 0 8.982 4.491 13.474 0 0 0 4.49 8.982 13.473 4.492 4.492 8.983 17.965 17.965 35.93 4.492 8.983 17.965 31.439 31.439 58.386 17.965 35.93 44.912 80.842 49.403 98.807v4.491l94.316 179.65 62.877 89.824M503.018 896c-8.983 0-17.965 0-26.948-4.491-8.982 0-17.965-4.491-26.947-13.474-8.983 0-17.965-8.982-22.456-17.965-8.983-8.982-13.474-17.965-22.456-31.438-8.983-13.474-22.457-35.93-26.948-44.913l233.544-134.737c4.491 4.492 13.474 22.457 17.965 31.44 4.491 4.49 8.982 13.473 13.474 17.964l13.473 26.947c4.492 8.983 8.983 17.965 8.983 26.948v26.947c-4.491 8.983-4.491 17.965-8.983 22.456-4.49 8.983-8.982 13.474-13.473 17.965-13.474 17.965-31.439 31.439-53.895 44.912C565.895 878.035 547.93 887.018 534.456 891.51 520.982 896 516.491 896 503.018 896zM327.86 702.877l-40.421-71.86-53.895-98.806-98.807-179.65c-13.474-26.947-71.86-139.228-85.333-157.193-8.983-17.964-17.965-31.438-17.965-35.93-4.492-13.473-13.474-22.456-13.474-31.438-4.491-8.982-4.491-17.965-4.491-26.947 0-4.492-4.492-17.965-4.492-35.93s0-35.93-4.49-53.895v-98.807c0-17.965 8.982-26.947 13.473-35.93C22.456-128 26.947-128 31.439-128c4.49 0 13.473 0 22.456 4.491l35.93 17.965c17.964 8.983 31.438 17.965 49.403 31.439 17.965 13.473 35.93 22.456 49.404 31.438 17.964 8.983 26.947 22.456 35.93 26.948 8.982 4.49 13.473 13.473 22.456 22.456 4.49 8.982 13.473 17.965 17.964 22.456 0 4.491 8.983 13.474 17.965 31.439 8.983 17.964 22.457 40.42 35.93 67.368 13.474 26.947 121.263 233.544 139.228 269.474l58.386 98.807 40.421 71.86L327.86 702.876zM1041.965 6.737H503.018c-26.948 0-44.913-17.965-44.913-44.912s17.965-44.913 44.913-44.913h538.947c26.947 0 44.912 17.965 44.912 44.913 0 22.456-22.456 44.912-44.912 44.912z m0 224.561H592.842c-26.947 0-44.912-17.965-44.912-44.912s17.965-44.912 44.912-44.912h449.123c26.947 0 44.912 17.965 44.912 44.912 0 22.456-22.456 44.912-44.912 44.912zM682.667 366.035h359.298c26.947 0 44.912 17.965 44.912 44.912s-17.965 44.913-44.912 44.913H682.667c-26.948 0-44.913-17.965-44.913-44.913s17.965-44.912 44.913-44.912z"  horiz-adv-x="1086" />

    
    <glyph glyph-name="tag" unicode="&#59016;" d="M434.992 646.244c20.813 0 62.439-16.65 79.09-33.3l316.357-316.359L601.496 63.48 285.138 379.837c-16.65 20.813-33.3 58.277-33.3 83.252V646.244h183.154m0 83.252H247.675c-41.626 0-79.09-37.463-79.09-79.09V463.09c0-45.788 24.976-104.065 58.277-137.365l320.52-320.52c16.65-16.651 37.464-24.976 58.277-24.976s41.626 8.325 58.276 24.975L897.041 238.31c33.3 33.3 33.3 83.252 0 112.39L576.52 671.22c-33.301 33.301-95.74 58.277-141.53 58.277zM459.967 529.691c45.79 0 83.253-37.463 83.253-83.252s-37.464-83.252-83.253-83.252-83.252 37.463-83.252 83.252 37.464 83.252 83.252 83.252z"  horiz-adv-x="1024" />

    
    <glyph glyph-name="log" unicode="&#59017;" d="M460.8 179.2H256V128h204.8zM870.4 896H153.6A102.4 102.4 0 0 1 51.2 793.6v-819.2A102.4 102.4 0 0 1 153.6-128h716.8a102.4 102.4 0 0 1 102.4 102.4V793.6A102.4 102.4 0 0 1 870.4 896z m-256-921.6H193.195a40.277 40.277 0 0 0-39.595 40.96V752.64a40.277 40.277 0 0 0 39.595 40.96H614.4z m256 40.96a40.277 40.277 0 0 0-39.595-40.96H716.8V793.6h114.005a40.277 40.277 0 0 0 39.595-40.96zM460.8 332.8H256v-51.2h204.8z m0 153.6H256v-51.2h204.8z m0 153.6H256v-51.2h204.8z"  horiz-adv-x="1024" />

    
    <glyph glyph-name="over" unicode="&#59018;" d="M763.733 768c0 25.6-17.066 42.667-42.666 42.667h-512c-25.6 0-42.667-17.067-42.667-42.667v-640c0-25.6 17.067-42.667 42.667-42.667H422.4V0h-256c-46.933 0-85.333 38.4-85.333 85.333V810.667C81.067 857.6 119.467 896 166.4 896h597.333c46.934 0 85.334-38.4 85.334-85.333v-384h-85.334V768zM524.8 247.467c-8.533-21.334-17.067-51.2-17.067-76.8C507.733 76.8 584.533 0 678.4 0c21.333 0 38.4 4.267 55.467 12.8l-12.8 8.533c-8.534 8.534-8.534 21.334 0 29.867s21.333 8.533 29.866 0l59.734-59.733c8.533-8.534 8.533-21.334 0-29.867l-59.734-59.733c-8.533-8.534-21.333-8.534-29.866 0s-8.534 21.333 0 29.866L768-21.333c-25.6-12.8-55.467-21.334-89.6-21.334-119.467 0-213.333 93.867-213.333 213.334 0 38.4 12.8 76.8 29.866 106.666l29.867-29.866z m89.6 183.466c8.533-8.533 8.533-21.333 0-29.866l-46.933-46.934L614.4 307.2c8.533-8.533 8.533-21.333 0-29.867s-21.333-8.533-29.867 0l-59.733 64c-8.533 8.534-8.533 21.334 0 29.867l59.733 59.733c8.534 8.534 21.334 8.534 29.867 0z m-106.667 166.4H294.4c-25.6 0-42.667 17.067-42.667 42.667s17.067 42.667 42.667 42.667h213.333c25.6 0 42.667-17.067 42.667-42.667s-17.067-42.667-42.667-42.667z m0-170.666H294.4c-25.6 0-42.667 17.066-42.667 42.666S268.8 512 294.4 512h213.333c25.6 0 42.667-17.067 42.667-42.667s-17.067-42.666-42.667-42.666zM678.4 341.333c-21.333 0-38.4-4.266-55.467-8.533L588.8 366.933c25.6 12.8 55.467 21.334 89.6 21.334 119.467 0 213.333-93.867 213.333-213.334 0-29.866-8.533-59.733-21.333-89.6l-34.133 34.134c4.266 17.066 8.533 34.133 8.533 55.466 4.267 89.6-72.533 166.4-166.4 166.4z"  horiz-adv-x="1024" />

    
    <glyph glyph-name="leads" unicode="&#59019;" d="M1024.05729 587.722v-446.248a269.474 269.474 0 0 0-538.947 0V650.959a161.684 161.684 0 0 1-323.368 0v-473.555A107.79 107.79 0 1 0 0.05729 87.579a107.07 107.07 0 0 0 53.895 89.825V626.526a269.474 269.474 0 0 0 538.948 0v-510.203a161.684 161.684 0 1 1 323.368 0v471.4a107.79 107.79 0 1 0 107.79 0z"  horiz-adv-x="1077" />

    
    <glyph glyph-name="pay" unicode="&#59020;" d="M994.743 169.448l-68.267-68.267c-9.752-9.752-24.38-9.752-34.133 0s-9.753 24.38 0 34.133l29.257 29.257H677.79c-14.628 0-24.38 9.753-24.38 24.381s9.752 24.381 24.38 24.381h238.934l-24.381 24.381c-9.753 9.753-9.753 24.381 0 34.134s24.38 9.752 34.133 0l68.267-68.267c4.876-9.752 4.876-24.381 0-34.133z m-487.62-53.638c-29.256 0-48.761 19.504-48.761 48.761V310.857H336.457c-14.628 0-24.38 9.753-24.38 24.381s9.752 24.381 24.38 24.381h121.905v97.524H336.457c-14.628 0-24.38 9.752-24.38 24.38s9.752 24.382 24.38 24.382H448.61L360.838 652.19c-4.876 9.753-4.876 24.381 14.629 34.134 9.752 4.876 24.38 4.876 34.133-9.753l97.524-170.666H512l97.524 170.666c4.876 9.753 19.505 14.629 34.133 9.753 9.753-4.876 14.629-19.505 9.753-34.134l-82.896-146.285h112.153c14.628 0 24.38-9.753 24.38-24.381s-9.752-24.381-24.38-24.381H560.762v-97.524h121.905c14.628 0 24.38-9.752 24.38-24.38s-9.752-24.382-24.38-24.382H560.762v-146.286c-4.876-24.38-29.257-48.761-53.638-48.761z m341.334 633.904c0 29.257-19.505 48.762-48.762 48.762H214.552c-29.257 0-48.762-19.505-48.762-48.762v-731.428c0-29.257 19.505-48.762 48.762-48.762h585.143c29.257 0 48.762 19.505 48.762 48.762h97.524v-48.762c0-53.638-43.886-97.524-97.524-97.524H165.79c-53.638 0-97.523 43.886-97.523 97.524V798.476C68.267 852.114 112.152 896 165.79 896h682.667c53.638 0 97.524-43.886 97.524-97.524V359.62h-97.524V749.714z"  horiz-adv-x="1024" />

    
    <glyph glyph-name="schedule" unicode="&#59021;" d="M1024-128H113.778A113.778 113.778 0 0 0 0-14.222V725.333A113.778 113.778 0 0 0 113.778 839.111h113.778v-113.778h-56.89a57.647 57.647 0 0 1-56.888-56.889v-56.888H1024v56.888a57.647 57.647 0 0 1-56.889 56.89h-56.889V839.11H1024a113.778 113.778 0 0 0 113.778-113.778v-739.555A113.778 113.778 0 0 0 1024-128z m0 682.667H113.778v-512a57.647 57.647 0 0 1 56.889-56.89H967.11a57.647 57.647 0 0 1 56.889 56.89zM625.778 213.333h227.555v-56.889H625.778z m0 170.667h227.555v-56.889H625.778zM284.444 213.333H512v-56.889H284.444z m0 170.667H512v-56.889H284.444z m512 512h56.89v-227.556h-56.89zM398.222 839.111h341.334v-113.778H398.222zM284.444 896h56.89v-227.556h-56.89z"  horiz-adv-x="1137" />

    
    <glyph glyph-name="statistics" unicode="&#59022;" d="M972.8-25.6H51.2C20.48-25.6 0-46.08 0-76.8s20.48-51.2 51.2-51.2h921.6c30.72 0 51.2 20.48 51.2 51.2s-20.48 51.2-51.2 51.2z m-768 102.4c30.72 0 51.2 20.48 51.2 51.2V640c0 30.72-20.48 51.2-51.2 51.2s-51.2-25.6-51.2-51.2v-512c0-30.72 20.48-51.2 51.2-51.2z m204.8 0c30.72 0 51.2 20.48 51.2 51.2V332.8c0 30.72-20.48 51.2-51.2 51.2s-51.2-20.48-51.2-51.2V128c0-30.72 20.48-51.2 51.2-51.2z m204.8 0c30.72 0 51.2 20.48 51.2 51.2V844.8c0 30.72-20.48 51.2-51.2 51.2s-51.2-20.48-51.2-51.2V128c0-30.72 20.48-51.2 51.2-51.2z m204.8 0c30.72 0 51.2 20.48 51.2 51.2V537.6c0 30.72-20.48 51.2-51.2 51.2S768 568.32 768 537.6V128c0-30.72 20.48-51.2 51.2-51.2z"  horiz-adv-x="1024" />

    
    <glyph glyph-name="seas" unicode="&#59023;" d="M969.387 224.386a195.048 195.048 0 1 1-280.869 0 289.97 289.97 0 0 1-152.137-254.862V-128h585.143v97.524a289.97 289.97 0 0 1-152.137 254.862zM828.952 457.143a97.524 97.524 0 1 0-97.523-97.524 97.524 97.524 0 0 0 97.523 97.524z m-195.047-487.62a195.048 195.048 0 0 0 390.095 0z m-48.762 341.334A289.97 289.97 0 0 1 433.006 565.72a195.048 195.048 0 1 1-280.869 0A289.97 289.97 0 0 1 0 310.857v-97.524h585.143zM292.57 798.477a97.524 97.524 0 1 0-97.523-97.525 97.524 97.524 0 0 0 97.523 97.524zM97.524 310.856a195.048 195.048 0 0 0 390.095 0z m752.233 276.318h-4.55a46.161 46.161 0 0 0-37.71 38.359 182.044 182.044 0 0 1-72.818 134.583 156.688 156.688 0 0 1-117.028 17.554 45.511 45.511 0 0 0-55.264 32.508 46.161 46.161 0 0 0 31.858 55.914 255.512 255.512 0 0 0 189.846-29.257 219.754 219.754 0 0 0 76.069-85.171 44.861 44.861 0 0 0 59.164 14.303 45.511 45.511 0 0 0 20.155-61.115l-48.762-92.972a46.161 46.161 0 0 0-40.96-24.706z m-509.724-698.27a230.806 230.806 0 0 0-125.48 31.857 228.206 228.206 0 0 0-78.67 89.072A45.511 45.511 0 0 0 77.37-6.42a46.161 46.161 0 0 0-20.805 61.115l48.762 97.523a45.511 45.511 0 0 0 85.82-13.653 195.048 195.048 0 0 1 72.818-141.084 157.338 157.338 0 0 1 113.778-11.703 45.511 45.511 0 1 0 24.706-87.121 236.008 236.008 0 0 0-62.415-9.753z"  horiz-adv-x="1121" />

    
    <glyph glyph-name="subproject" unicode="&#59024;" d="M788.48 622.933C781.653 629.76 774.827 640 768 646.827c-6.827 6.826-13.653 13.653-17.067 20.48-10.24 10.24-17.066 17.066-27.306 20.48-10.24 3.413-17.067 3.413-23.894 3.413h-358.4c-10.24 0-20.48-3.413-27.306-6.827-6.827-3.413-13.654-6.826-20.48-13.653-3.414-3.413-10.24-10.24-20.48-17.067-6.827-6.826-17.067-17.066-23.894-27.306-10.24-10.24-27.306-23.894-37.546-37.547h614.4c-10.24 10.24-27.307 23.893-37.547 34.133z m37.547-375.466h-614.4c-44.374-3.414-68.267-23.894-68.267-68.267v-64.853c0-23.894 6.827-40.96 20.48-51.2 13.653-13.654 30.72-20.48 47.787-20.48H819.2c20.48 0 37.547 6.826 51.2 17.066 13.653 13.654 20.48 27.307 20.48 44.374l3.413 71.68c0 44.373-27.306 71.68-68.266 71.68zM587.093 110.933H450.56c-20.48 0-34.133 13.654-34.133 34.134S430.08 179.2 450.56 179.2h136.533c20.48 0 34.134-13.653 34.134-34.133s-17.067-34.134-34.134-34.134z m-375.466 204.8H819.2c20.48 0 37.547 6.827 51.2 17.067 13.653 13.653 20.48 27.307 20.48 44.373l3.413 71.68c3.414 40.96-27.306 68.267-68.266 68.267h-614.4c-44.374-3.413-68.267-23.893-68.267-68.267V384c0-23.893 6.827-40.96 20.48-51.2 13.653-10.24 30.72-17.067 47.787-17.067zM450.56 452.267h136.533c20.48 0 34.134-13.654 34.134-34.134S607.573 384 587.093 384H450.56c-20.48 0-34.133 13.653-34.133 34.133s13.653 34.134 34.133 34.134z"  horiz-adv-x="1024" />

    
    <glyph glyph-name="productstatistics" unicode="&#59025;" d="M389.12 786.773v-273.066H116.053V786.773H389.12m364.089-22.755L866.987 650.24 753.209 536.462 639.43 650.24 753.21 764.018M889.742 286.15v-273.067H616.676V286.151h273.066m-500.622 0v-273.067H116.053V286.151H389.12M753.209 877.796c-9.102 0-18.205-4.552-22.756-9.103L534.756 672.996c-13.654-13.654-9.103-36.41 4.55-50.063l186.596-191.146c4.551-9.103 18.205-9.103 27.307-9.103s18.204 4.552 27.307 9.103L967.11 622.933c13.653 13.654 18.205 36.41 4.551 50.063L775.964 868.693c-9.102 9.103-13.653 9.103-22.755 9.103z m-318.578 0H65.991c-27.307 0-45.511-18.205-45.511-45.512v-368.64c0-27.306 22.756-40.96 50.062-40.96H425.53c27.307 0 50.062 22.756 50.062 50.063V827.733c4.551 27.307-13.653 50.063-40.96 50.063z m491.52-500.623H571.164c-27.306 0-50.062-22.755-50.062-50.062v-354.987c0-27.306 13.654-50.062 40.96-50.062h368.64c27.307 0 45.511 18.205 45.511 45.511v368.64c4.551 27.307-22.755 40.96-50.062 40.96z m-500.622 0H70.542c-27.306 0-50.062-13.653-50.062-40.96v-364.089c0-27.306 18.204-50.062 45.511-50.062h368.64c27.307 0 40.96 22.756 40.96 50.062V327.111c4.551 27.307-22.755 50.062-50.062 50.062z"  horiz-adv-x="1024" />

    
    <glyph glyph-name="set" unicode="&#59026;" d="M543.304 791.935c0-54.114 33.3-99.902 79.09-120.715 0 0 12.487-4.163 24.975-12.488l24.975-16.65c20.813-16.651 49.952-24.976 79.09-24.976 20.813 0 45.789 4.162 62.439 16.65h4.163l41.626-74.927-4.163-4.162c-41.626-24.976-66.602-79.09-62.44-124.878v-58.277c-8.324-49.951 16.651-99.902 62.44-124.878l4.163-4.162-41.626-74.927h-4.163c-16.65 12.488-41.626 16.65-62.44 16.65-29.137 0-58.276-8.325-79.089-24.975 0 0-8.325-8.326-24.975-16.65-12.488-8.326-24.976-12.489-24.976-12.489-45.788-24.975-79.09-74.927-79.09-124.878v-4.162h-83.251v4.162c0 49.951-33.301 95.74-79.09 116.553 0 0-12.487 4.163-29.138 12.488-12.488 8.325-20.813 16.65-20.813 16.65-20.813 16.65-49.951 24.976-79.09 24.976-20.812 0-45.788-4.163-62.438-16.65h-4.163l-41.626 74.926 4.163 4.163c41.626 24.976 66.601 79.09 62.439 124.878v58.276c8.325 49.952-16.65 99.903-62.44 124.878v8.326l41.627 74.926h4.162c16.65-12.487 41.626-16.65 62.44-16.65 29.138 0 58.276 8.325 79.089 24.976 0 0 8.325 8.325 24.975 16.65 12.488 8.325 24.976 12.488 24.976 12.488 41.626 20.813 74.927 70.764 74.927 120.715v4.163h83.252m-41.626-636.878c133.203 0 241.43 108.228 241.43 241.43S634.882 637.92 501.679 637.92 260.247 529.69 260.247 396.488s108.228-241.431 241.43-241.431m95.74 720.13H405.939c-16.65 0-29.138-12.488-29.138-29.138v-58.277c0-16.65-12.488-33.3-24.976-41.626 0 0-16.65-8.325-37.463-16.65-20.813-12.488-33.301-24.976-33.301-24.976-8.325-4.162-16.65-8.325-24.976-8.325-8.325 0-16.65 0-20.813 4.163l-54.114 33.3c-4.162 0-8.325 4.163-12.487 4.163-8.326 0-20.813-8.325-24.976-16.65l-95.74-170.667c-8.325-12.488-4.162-33.3 8.325-41.626l54.114-29.138c12.488-8.325 20.813-29.138 20.813-41.626 0 0-4.162-16.65-4.162-41.626s4.162-41.626 4.162-41.626c4.163-16.65-8.325-33.301-20.813-41.626l-49.951-29.138c-12.488-8.326-16.65-24.976-8.325-37.464l95.74-170.667c0-12.487 12.487-20.813 20.813-20.813 4.162 0 8.325 0 12.487 4.163l49.952 29.138c4.162 4.163 12.487 4.163 20.813 4.163s20.813-4.163 24.975-8.325c0 0 12.488-8.326 33.301-20.813s37.464-20.813 37.464-20.813c16.65 0 29.138-20.813 29.138-37.464v-58.276c0-16.65 12.488-29.138 29.138-29.138h191.48c16.65 0 29.138 12.487 29.138 29.138v58.276c0 16.65 12.488 33.301 24.975 41.626 0 0 16.65 8.325 37.464 16.65 20.813 12.488 33.3 20.814 33.3 20.814 8.326 4.162 16.651 8.325 24.976 8.325s16.65 0 20.813-4.163l49.952-29.138c4.162-4.163 8.325-4.163 12.487-4.163 8.326 0 20.813 4.163 24.976 12.488l95.74 170.667c8.325 12.488 4.162 33.3-8.325 37.463l-49.952 37.464c-12.487 8.325-20.813 29.138-20.813 41.626 0 0 4.163 16.65 4.163 41.626s-4.163 41.626-4.163 41.626c-4.162 16.65 8.326 33.3 20.813 41.626l49.952 29.138c12.487 8.325 16.65 24.976 8.325 37.463l-95.74 170.667c0 12.488-12.488 16.65-20.813 16.65-4.163 0-8.325 0-12.488-4.162l-49.951-29.138c-4.163-4.163-12.488-4.163-20.813-4.163s-20.813 4.163-24.976 8.325c0 0-12.488 12.488-33.3 20.813-20.814 12.488-37.464 16.65-37.464 16.65-16.65 8.326-29.138 29.139-29.138 45.79V846.048c0 16.65-12.488 29.138-29.138 29.138z m-95.74-636.878c-87.414 0-158.178 70.764-158.178 158.179s70.764 158.179 158.179 158.179 158.179-70.765 158.179-158.18-70.765-158.178-158.18-158.178z"  horiz-adv-x="1024" />

    
    <glyph glyph-name="recycle" unicode="&#59027;" d="M723.627 619.52l-51.2-477.867h-358.4l-30.72 477.867h440.32m136.533 68.267h-716.8v-68.267h68.267l34.133-498.347c0-27.306 20.48-47.786 44.373-47.786h402.774c23.893 0 44.373 20.48 44.373 47.786l54.613 498.347h68.267v68.267zM460.8 756.053h85.333c23.894 0 44.374-30.72 44.374-68.266s-3.414-58.027-44.374-68.267H460.8c-23.893 0-30.72 13.653-40.96 47.787v20.48c-3.413 37.546 17.067 68.266 40.96 68.266z m-78.507-477.866h68.267v204.8h-68.267v-204.8z m170.667 204.8v-204.8h68.267v204.8H552.96z"  horiz-adv-x="1024" />

    
    <glyph glyph-name="personcenter" unicode="&#59028;" d="M768 320H256a192 192 0 0 1-192-192v-192a64 64 0 0 1 64-64h768a64 64 0 0 1 64 64v192a192 192 0 0 1-192 192z m64-288a32 32 0 0 0-32-32h-576a32 32 0 0 0-32 32v64A96 96 0 0 0 288 192h448a96 96 0 0 0 96-96zM512 384a256 256 0 1 1-256 256 256 256 0 0 1 256-256z m0 384a128 128 0 1 0-128-128 128 128 0 0 0 128 128z"  horiz-adv-x="1024" />

    
    <glyph glyph-name="goout" unicode="&#59029;" d="M1170.285714 384a73.142857 73.142857 0 0 0-27.794285-56.32 100.205714 100.205714 0 0 0-14.628572-21.211429L877.714286 91.42857100000003V310.85714299999995H512a73.142857 73.142857 0 0 0 0 146.285714h365.714286V676.571429l250.148571-215.04a100.205714 100.205714 0 0 0 14.628572-21.211429A73.142857 73.142857 0 0 0 1170.285714 384zM512 749.714286H146.285714v-731.428572h365.714286a146.285714 146.285714 0 0 1 146.285714 146.285715h146.285715v-73.142858a219.428571 219.428571 0 0 0-219.428572-219.428571H146.285714a146.285714 146.285714 0 0 0-146.285714 146.285714V749.714286a146.285714 146.285714 0 0 0 146.285714 146.285714h438.857143a219.428571 219.428571 0 0 0 219.428572-219.428571v-73.142858H658.285714a146.285714 146.285714 0 0 1-146.285714 146.285715z"  horiz-adv-x="1170" />

    
    <glyph glyph-name="versions" unicode="&#59030;" d="M950.857143-128H73.142857a73.142857 73.142857 0 0 0-73.142857 73.142857V822.857143a73.142857 73.142857 0 0 0 73.142857 73.142857h877.714286a73.142857 73.142857 0 0 0 73.142857-73.142857v-877.714286a73.142857 73.142857 0 0 0-73.142857-73.142857zM658.285714 749.714286H365.714286v-219.428572h292.571428z m219.428572-73.142857a73.142857 73.142857 0 0 1-73.142857 73.142857v-365.714286H219.428571V749.714286a73.142857 73.142857 0 0 1-73.142857-73.142857v-585.142858a73.142857 73.142857 0 0 1 73.142857-73.142857h585.142858a73.142857 73.142857 0 0 1 73.142857 73.142857z"  horiz-adv-x="1024" />

    
    <glyph glyph-name="business-customer" unicode="&#59033;" d="M747.955646 277.679862v-188.932406a216.747456 216.747456 0 0 0-216.222643-216.747456h-39.360918a216.747456 216.747456 0 0 0-216.747456 216.747456v188.932406a354.248263 354.248263 0 1 0 590.413772 262.406121 351.624202 351.624202 0 0 0-118.082755-262.406121zM354.346465 108.165509h314.887345v78.721836h-314.887345z m138.02562-157.443673h39.360918a136.975995 136.975995 0 0 1 135.401558 118.082754H356.445714A136.975995 136.975995 0 0 1 492.372085-49.278164z m19.418053 865.940198a275.001614 275.001614 0 0 1-157.443673-501.19569v-89.218081h314.887345v89.218081a275.001614 275.001614 0 0 1-157.443672 501.19569z"  horiz-adv-x="1024" />

    
    <glyph glyph-name="dashboard" unicode="&#59031;" d="M511.993794-128A512.614393 512.614393 0 0 0 0 383.993794a510.131998 510.131998 0 0 0 148.943649 360.567751A511.993794 511.993794 0 1 0 511.993794-128zM839.049224 647.748173l-31.029927-31.029927A46.54489 46.54489 0 0 0 744.718246 680.019297l31.029927 31.029927A418.283415 418.283415 0 0 1 558.538684 800.415413v-44.062496a46.54489 46.54489 0 0 0-93.08978 0v44.062496A415.180422 415.180422 0 0 1 251.963007 709.808027l29.788729-29.78873a45.924292 45.924292 0 0 0 0-65.783445 46.54489 46.54489 0 0 0-65.783445 0L186.179561 644.64518a420.14521 420.14521 0 0 1-89.986788-212.865299h43.441898a46.54489 46.54489 0 0 0 0-93.08978h-42.200701A415.180422 415.180422 0 0 1 186.179561 123.96300699999995l31.029927 30.409328a45.924292 45.924292 0 0 0 65.783445 0 46.54489 46.54489 0 0 0 0-65.783445l-31.029926-31.029927A423.868802 423.868802 0 0 1 464.828305-34.910218999999984v44.062496a46.54489 46.54489 0 0 0 93.089781 0v-43.441898a417.042218 417.042218 0 0 1 214.727094 88.124993L744.718246 89.20948799999996a45.924292 45.924292 0 0 0 0 62.059854 46.54489 46.54489 0 0 0 62.059854 0l31.650525-31.650525A418.283415 418.283415 0 0 1 930.897807 337.44890399999997h-44.683094a46.54489 46.54489 0 0 0 0 93.08978h43.441897A417.042218 417.042218 0 0 1 839.049224 647.748173z m-372.359123-341.949795A93.089781 93.089781 0 0 0 434.418977 430.538684a1725.263936 1725.263936 0 0 0 217.209488 195.48854A1784.220797 1784.220797 0 0 0 592.671604 337.44890399999997a93.710379 93.710379 0 0 0-127.2227-34.13292z"  horiz-adv-x="1024" />

    
    <glyph glyph-name="BI_Leaderboard" unicode="&#59132;" d="M56.640387-128a53.8919 53.8919 0 1 0 0 107.783801h1018.556918a53.8919 53.8919 0 1 0 0-107.783801zM808.378506 130.681122v344.908163c0 23.766328 36.215357 43.11352 80.837851 43.11352s80.837851-19.347192 80.837851-43.11352v-344.908163c0-23.874112-36.215357-43.11352-80.837851-43.11352s-80.837851 19.2933-80.837851 43.11352z m-323.351402 7.38319V845.395505C485.027104 873.31151 521.134677 896 565.864954 896s80.837851-22.634598 80.837851-50.604495v-707.331193c0-27.862113-36.161465-50.496711-80.837851-50.49671s-80.837851 22.634598-80.83785 50.49671z m-323.351403-1.13173V630.959634c0 27.323194 36.161465 49.418873 80.837851 49.418872s80.837851-22.095679 80.837851-49.418872v-494.027052c0-27.323194-36.161465-49.364981-80.837851-49.36498s-80.837851 22.095679-80.837851 49.418872z"  horiz-adv-x="1131" />

    
    <glyph glyph-name="BI_Office" unicode="&#59133;" d="M972.751362-127.948803H102.39488a102.39488 102.39488 0 0 0-102.39488 102.394881V588.815359a102.39488 102.39488 0 0 0 102.39488 102.39488h204.789761V793.60512a102.39488 102.39488 0 0 0 102.39488 102.39488h255.987201a102.39488 102.39488 0 0 0 102.39488-102.39488v-102.394881h204.78976a102.39488 102.39488 0 0 0 102.394881-102.39488v-614.369281a102.39488 102.39488 0 0 0-102.394881-102.394881zM102.39488 384.025599v-358.382081a51.19744 51.19744 0 0 1 51.19744-51.19744h767.961602a51.19744 51.19744 0 0 1 51.19744 51.19744v358.382081h-255.9872v-204.789761a51.19744 51.19744 0 0 0-51.19744-51.19744H409.579521a51.19744 51.19744 0 0 0-51.19744 51.19744v204.789761z m358.382081 0v-153.592321h153.592321v153.592321zM153.59232 588.815359a51.19744 51.19744 0 0 1-51.19744-51.19744v-51.19744h870.356482V537.617919a51.19744 51.19744 0 0 1-51.19744 51.19744H153.59232z m307.184641 204.789761a51.19744 51.19744 0 1 1 0-102.394881h153.592321a51.19744 51.19744 0 1 1 0 102.394881z"  horiz-adv-x="1075" />

    
    <glyph glyph-name="BI_Employee_performance" unicode="&#59134;" d="M967.111111-128H113.777778c-62.691556 0-113.777778 51.029333-113.777778 113.777778V782.222222C0 844.913778 51.086222 896 113.777778 896h853.333333c62.748444 0 113.777778-51.086222 113.777778-113.777778v-796.444444c0-62.748444-51.029333-113.777778-113.777778-113.777778zM314.026667 392.476444L113.777778 192.284444V42.666667c0-31.345778 25.486222-56.888889 56.888889-56.888889h739.555555c31.345778 0 56.888889 25.543111 56.888889 56.888889V725.333333c0 31.402667-25.543111 56.888889-56.888889 56.888889H170.666667a56.888889 56.888889 0 0 1-56.888889-56.888889v-372.053333l119.921778 119.864889-5.859556 5.859555 75.719111 76.117334 6.030222-6.087111 5.290667 5.290666L395.377778 473.884444l-5.518222-5.518222L523.719111 333.937778l163.043556 163.84H625.777778V611.555556h284.444444v-284.444445h-113.777778V445.667556l-272.497777-273.976889-81.635556 80.327111 5.688889 5.745778L313.969778 392.533333z"  horiz-adv-x="1080" />

    
    <glyph glyph-name="help_tips" unicode="&#59136;" d="M512-128A512 512 0 1 0 1024 384 512 512 0 0 0 512-128z m0 945.230769A433.230769 433.230769 0 1 1 945.230769 384 433.230769 433.230769 0 0 1 512 817.230769z m100.824615-474.584615a121.462154 121.462154 0 0 1-33.083077-40.96 105.865846 105.865846 0 0 1-12.603076-51.987692v-13.39077H482.855385v13.39077a156.435692 156.435692 0 0 0 15.753846 74.830769 405.976615 405.976615 0 0 0 89.009231 97.673846l13.390769 14.966154a93.184 93.184 0 0 1 22.055384 57.501538 80.896 80.896 0 0 1-89.796923 88.221539 87.512615 87.512615 0 0 1-77.193846-33.87077 131.780923 131.780923 0 0 1-21.267692-80.344615H352.098462a172.740923 172.740923 0 0 0 186.683076 185.895385 176.994462 176.994462 0 0 0 122.88-41.747693 141.312 141.312 0 0 0 47.261539-112.64 152.103385 152.103385 0 0 0-29.932308-96.098461 804.627692 804.627692 0 0 0-66.166154-61.44z m-88.221538-148.873846a56.477538 56.477538 0 0 0 41.747692-15.753846 51.515077 51.515077 0 0 0 16.541539-40.172308 56.004923 56.004923 0 0 0-17.329231-40.96 58.840615 58.840615 0 0 0-40.96-15.753846 55.611077 55.611077 0 0 0-40.96 16.541538 54.665846 54.665846 0 0 0-16.541539 40.172308 51.515077 51.515077 0 0 0 16.541539 40.172308 55.138462 55.138462 0 0 0 40.96 15.753846z"  horiz-adv-x="1024" />

    
    <glyph glyph-name="log-delete" unicode="&#59135;" d="M804.571429-128H292.571429a146.285714 146.285714 0 0 0-146.285715 146.285714V676.571429H36.571429a36.571429 36.571429 0 0 0 0 73.142857H365.714286V822.857143a73.142857 73.142857 0 0 0 73.142857 73.142857h219.428571a73.142857 73.142857 0 0 0 73.142857-73.142857v-73.142857h329.142858a36.571429 36.571429 0 0 0 0-73.142857H950.857143v-658.285715a146.285714 146.285714 0 0 0-146.285714-146.285714zM219.428571 676.571429v-658.285715a73.142857 73.142857 0 0 1 73.142858-73.142857h512a73.142857 73.142857 0 0 1 73.142857 73.142857V676.571429H219.428571z m219.428572 146.285714v-73.142857h219.428571V822.857143z m256-658.285714a36.571429 36.571429 0 0 0-36.571429 36.571428v219.428572a36.571429 36.571429 0 0 0 73.142857 0v-219.428572a36.571429 36.571429 0 0 0-36.571428-36.571428z m-292.571429 0a36.571429 36.571429 0 0 0-36.571428 36.571428v219.428572a36.571429 36.571429 0 0 0 73.142857 0v-219.428572a36.571429 36.571429 0 0 0-36.571429-36.571428z"  horiz-adv-x="1097" />

    
    <glyph glyph-name="log-reply" unicode="&#59137;" d="M442.944-128l-189.888 192H128a128 128 0 0 0-128 128V768a128 128 0 0 0 128 128h832a128 128 0 0 0 128-128v-576a128 128 0 0 0-128-128H635.008l-192-192zM64 768v-576a64 64 0 0 1 64-64h126.976L448-64l188.992 192H960a64 64 0 0 1 64 64V768a64 64 0 0 1-64 64H128a64 64 0 0 1-64-64z m160-448a32 32 0 0 0 0 64h320a32 32 0 0 0 0-64z m0 256a32 32 0 0 0 0 64h512a32 32 0 1 0 0-64z"  horiz-adv-x="1088" />

    
    <glyph glyph-name="marketing" unicode="&#59140;" d="M120.500706-128V775.529412a120.470588 120.470588 0 0 0 120.470588 120.470588h542.117647a120.470588 120.470588 0 0 0 120.470588-120.470588v-903.529412l-392.071529 301.176471-390.987294-301.176471z m389.180235 421.647059l273.408-180.705883V715.294118a60.235294 60.235294 0 0 1-60.235294 60.235294h-421.647059a60.235294 60.235294 0 0 1-60.235294-60.235294v-602.352942l268.589177 180.705883z"  horiz-adv-x="1024" />

    
    <glyph glyph-name="icon_reset_account_login" unicode="&#59139;" d="M942.497145 350.34139h80.552852a511.964191 511.964191 0 1 0-208.714418 446.962609l-7.366391-9.821855 86.555097 62.341496 29.670187-279.650038-258.710389 114.929345 83.690389 60.295277a426.363997 426.363997 0 0 1-234.974239 71.958729 432.707278 432.707278 0 1 1 429.228705-466.810941zM683.786756 179.823074C683.786756 236.366947 607.462758 282.134063 513.268441 282.134063S342.750125 236.366947 342.750125 179.823074a66.979594 66.979594 0 0 1 10.435721-34.103663H279.385519A124.205541 124.205541 0 0 0 274.542799 179.823074a171.609633 171.609633 0 0 0 122.773187 148.282727 170.518316 170.518316 0 1 0 231.495665 0 171.609633 171.609633 0 0 0 122.773188-148.282727 124.205541 124.205541 0 0 0-4.842721-34.103663H672.873584a66.911387 66.911387 0 0 1 10.913172 34.103663zM513.268441 554.963369A102.310989 102.310989 0 1 1 615.57943 452.652379 102.310989 102.310989 0 0 1 513.268441 554.963369z"  horiz-adv-x="1024" />

    


  </font>
</defs>
</svg>
